<?xml version="1.0" encoding="UTF-8" standalone="no"?>
<svg
   width="22"
   height="22"
   version="1.1"
   id="svg1"
   sodipodi:docname="kalarm-disabled.svg"
   inkscape:version="1.4.2 (unknown)"
   xmlns:inkscape="http://www.inkscape.org/namespaces/inkscape"
   xmlns:sodipodi="http://sodipodi.sourceforge.net/DTD/sodipodi-0.dtd"
   xmlns="http://www.w3.org/2000/svg"
   xmlns:svg="http://www.w3.org/2000/svg">
  <defs
     id="defs1" />
  <sodipodi:namedview
     id="namedview1"
     pagecolor="#ffffff"
     bordercolor="#999999"
     borderopacity="1"
     inkscape:showpageshadow="2"
     inkscape:pageopacity="0"
     inkscape:pagecheckerboard="0"
     inkscape:deskcolor="#d1d1d1"
     inkscape:zoom="24.491608"
     inkscape:cx="11.248751"
     inkscape:cy="13.821061"
     inkscape:window-width="1920"
     inkscape:window-height="994"
     inkscape:window-x="0"
     inkscape:window-y="0"
     inkscape:window-maximized="1"
     inkscape:current-layer="svg1" />
  <style
     type="text/css"
     id="current-color-scheme">.ColorScheme-Text{color:#31363b;}.ColorScheme-Background{color:#eff0f1;}.ColorScheme-Highlight{color:#3daee9;}.ColorScheme-ViewText{color:#31363b;}.ColorScheme-ViewBackground{color:#fcfcfc;}.ColorScheme-ViewHover{color:#93cee9;}.ColorScheme-ViewFocus{color:#3daee9;}.ColorScheme-ButtonText{color:#31363b;}.ColorScheme-ButtonBackground{color:#eff0f1;}.ColorScheme-ButtonHover{color:#93cee9;}.ColorScheme-ButtonFocus { color: #3daee9; } </style>
  <g
     id="g1"
     transform="translate(-1.3015625e-6,-23.099839)">
    <path
       d="M 9.835366,36.765027 C 9.346634,36.764441 8.950585,36.368392 8.95,35.87966 v -3.895611 c 0.0018,-1.178732 1.768977,-1.178732 1.770731,0 v 3.895611 c -5.85e-4,0.488731 -0.396634,0.884781 -0.885365,0.885367 z m 0,-5.312199 z"
       id="path8-5-9"
       style="color:#bf616a;fill:#00b2b2;fill-opacity:1;stroke-width:0.177075"
       sodipodi:nodetypes="cccccccccccc"
       class="ColorScheme-NegativeText" />
    <path
       d="M 12.314363,36.765027 C 11.825632,36.76444 11.429585,36.368391 11.429,35.87966 v -3.895611 c 0.0018,-1.178732 1.768977,-1.178732 1.770731,0 v 3.895611 c -5.85e-4,0.488732 -0.396635,0.884782 -0.885368,0.885367 z m 0,-5.312199 z"
       id="path10-1"
       style="color:#bf616a;fill:#00b2b2;fill-opacity:1;stroke-width:0.177075"
       sodipodi:nodetypes="cccccccccccc"
       class="ColorScheme-NegativeText" />
    <path
       d="m 17.815482,38.633628 c -1.068008,-0.764073 -1.680013,-1.929763 -1.680013,-3.201572 v -2.666068 c 0,-2.233428 -1.580579,-4.122368 -3.733735,-4.703577 v -0.628559 c 0,-0.734678 -0.627433,-1.333852 -1.40057,-1.333852 -0.771432,0 -1.4005805,0.597538 -1.4005805,1.333852 v 0.628559 C 7.4474264,28.64362 5.8668446,30.53256 5.8668446,32.765988 v 2.666068 c 0,1.270181 -0.6120029,2.435873 -1.6800085,3.201572 -0.1611366,0.114283 -0.2262828,0.313465 -0.1628553,0.49632 0.063453,0.181216 0.2417198,0.303663 0.4422841,0.303663 h 4.2463129 c -0.030813,0.145306 -0.048,0.293873 -0.048,0.444069 0,1.224469 1.0474326,2.221999 2.3331572,2.221999 1.285717,0 2.333154,-0.99753 2.333154,-2.221999 0,-0.148569 -0.01545,-0.298763 -0.04627,-0.444069 h 4.246303 c 0.200578,0 0.378861,-0.122447 0.442296,-0.303663 0.06855,-0.181228 0.0018,-0.382037 -0.157718,-0.49632 z M 10.536586,27.433852 c 0,-0.244896 0.209147,-0.444078 0.466289,-0.444078 0.257144,0 0.466288,0.199182 0.466288,0.444078 v 0.465298 c -0.154291,-0.01307 -0.308573,-0.02121 -0.466288,-0.02121 -0.157713,0 -0.312007,0.0064 -0.466289,0.02121 z m 1.866864,12.442201 c 0,0.734678 -0.627429,1.333852 -1.400575,1.333852 -0.771433,0 -1.4005831,-0.597547 -1.4005831,-1.333852 0,-0.151833 0.027457,-0.302038 0.080544,-0.444079 h 2.6400151 c 0.05318,0.142041 0.08052,0.292246 0.08052,0.444079 z M 5.6302707,38.54383 c 0.2382924,-0.274283 0.4457212,-0.574684 0.6154406,-0.889777 0.3720011,-0.692229 0.5588565,-1.438334 0.5588565,-2.221997 v -2.666068 c 0,-2.205671 1.88401,-3.99992 4.2000212,-3.99992 2.314294,0 4.200023,1.794249 4.200023,3.99992 v 2.666068 c 0,0.782026 0.188574,1.529768 0.558858,2.220361 0.169719,0.316729 0.377146,0.615504 0.613719,0.889783 H 5.6302707 Z"
       id="path4-3-7-5"
       style="fill:#d3dae3;fill-opacity:1;stroke-width:0.0167295" />
  </g>
</svg>
