<?xml version="1.0" encoding="UTF-8" standalone="no"?>
<svg
   height="22"
   width="22"
   version="1.1"
   id="svg2"
   sodipodi:docname="package-reinstall.svg"
   inkscape:version="1.4.2 (unknown)"
   xmlns:inkscape="http://www.inkscape.org/namespaces/inkscape"
   xmlns:sodipodi="http://sodipodi.sourceforge.net/DTD/sodipodi-0.dtd"
   xmlns="http://www.w3.org/2000/svg"
   xmlns:svg="http://www.w3.org/2000/svg">
  <defs
     id="defs2" />
  <sodipodi:namedview
     id="namedview2"
     pagecolor="#ffffff"
     bordercolor="#000000"
     borderopacity="0.25"
     inkscape:showpageshadow="2"
     inkscape:pageopacity="0.0"
     inkscape:pagecheckerboard="0"
     inkscape:deskcolor="#d1d1d1"
     inkscape:zoom="12.229733"
     inkscape:cx="14.268504"
     inkscape:cy="20.482867"
     inkscape:current-layer="svg2" />
  <style
     type="text/css"
     id="current-color-scheme">
        .ColorScheme-Text {
            color:#eff0f1;
        }
    </style>
  <rect
     fill="#9b59b6"
     height="22"
     rx="2"
     width="22"
     id="rect1" />
  <path
     d="M2 0C.892 0 0 .892 0 2v18c0 1.108.892 2 2 2h18c1.108 0 2-.892 2-2V2c0-1.108-.892-2-2-2zm0 1h18c.554 0 1 .446 1 1v18c0 .554-.446 1-1 1H2c-.554 0-1-.446-1-1V2c0-.554.446-1 1-1z"
     style="fill:currentColor;fill-opacity:0.6;stroke:none"
     class="ColorScheme-Text"
     id="path1" />
  <path
     d="M 11.000004,2.5 V 4.388889 A 7.5999997,7.5555553 0 0 0 3.4000004,11.944442 7.5999997,7.5555553 0 0 0 11.000004,19.5 7.5999997,7.5555553 0 0 0 18.6,11.944442 H 16.699999 A 5.6999998,5.6666666 0 0 1 11.000004,17.61111 5.6999998,5.6666666 0 0 1 5.3000005,11.944442 5.6999998,5.6666666 0 0 1 11.000004,6.2777779 v 1.8888887 l 3.799993,-2.8333334 z"
     fill="#ffffff"
     id="path3"
     style="stroke-width:0.999983" />
</svg>
