<?xml version="1.0" encoding="UTF-8" standalone="no"?>
<svg
   height="22"
   width="22"
   version="1.1"
   id="svg2"
   sodipodi:docname="package-remove.svg"
   inkscape:version="1.4.2 (unknown)"
   xmlns:inkscape="http://www.inkscape.org/namespaces/inkscape"
   xmlns:sodipodi="http://sodipodi.sourceforge.net/DTD/sodipodi-0.dtd"
   xmlns="http://www.w3.org/2000/svg"
   xmlns:svg="http://www.w3.org/2000/svg">
  <defs
     id="defs2" />
  <sodipodi:namedview
     id="namedview2"
     pagecolor="#ffffff"
     bordercolor="#000000"
     borderopacity="0.25"
     inkscape:showpageshadow="2"
     inkscape:pageopacity="0.0"
     inkscape:pagecheckerboard="0"
     inkscape:deskcolor="#d1d1d1"
     inkscape:zoom="12.229733"
     inkscape:cx="4.2110485"
     inkscape:cy="27.678445"
     inkscape:current-layer="svg2" />
  <style
     type="text/css"
     id="current-color-scheme">
        .ColorScheme-NegativeText {
            color:#da4453;
        }
        .ColorScheme-Text {
            color:#eff0f1;
        }
    </style>
  <rect
     style="fill:#eeaab1;fill-opacity:1;stroke:none"
     class="ColorScheme-NegativeText"
     height="22"
     rx="2"
     width="22"
     id="rect1" />
  <path
     d="M2 0C.892 0 0 .892 0 2v18c0 1.108.892 2 2 2h18c1.108 0 2-.892 2-2V2c0-1.108-.892-2-2-2zm0 1h18c.554 0 1 .446 1 1v18c0 .554-.446 1-1 1H2c-.554 0-1-.446-1-1V2c0-.554.446-1 1-1z"
     style="fill:currentColor;fill-opacity:0.6;stroke:none"
     class="ColorScheme-Text"
     id="path2" />
  <g
     id="g2">
    <path
       style="color:#da4453;fill:currentColor;fill-opacity:1;stroke:none;stroke-width:1"
       class="ColorScheme-NegativeText"
       d="M 11,3 A 8.0000004,8.0000004 0 0 0 2.999999,10.999998 8.0000004,8.0000004 0 0 0 11,19 8.0000004,8.0000004 0 0 0 19.000001,10.999998 8.0000004,8.0000004 0 0 0 11,3 Z"
       id="path1-3" />
    <path
       d="m 5.1818166,10.272724 v 1.454552 H 16.818175 v -1.454552 z"
       fill="#ffffff"
       id="path2-6"
       style="stroke-width:1" />
  </g>
</svg>
