<?xml version="1.0" encoding="UTF-8" standalone="no"?>
<svg
   height="22"
   width="22"
   version="1.1"
   id="svg2"
   sodipodi:docname="package-new.svg"
   inkscape:version="1.4.2 (unknown)"
   xmlns:inkscape="http://www.inkscape.org/namespaces/inkscape"
   xmlns:sodipodi="http://sodipodi.sourceforge.net/DTD/sodipodi-0.dtd"
   xmlns="http://www.w3.org/2000/svg"
   xmlns:svg="http://www.w3.org/2000/svg">
  <defs
     id="defs2" />
  <sodipodi:namedview
     id="namedview2"
     pagecolor="#ffffff"
     bordercolor="#000000"
     borderopacity="0.25"
     inkscape:showpageshadow="2"
     inkscape:pageopacity="0.0"
     inkscape:pagecheckerboard="0"
     inkscape:deskcolor="#d1d1d1"
     inkscape:zoom="17.295455"
     inkscape:cx="10.667543"
     inkscape:cy="13.731932"
     inkscape:current-layer="svg2" />
  <style
     type="text/css"
     id="current-color-scheme">
        .ColorScheme-PositiveText {
            color:#27ae60;
        }
        .ColorScheme-Text {
            color:#eff0f1;
        }
    </style>
  <rect
     style="fill:#c6afe9;fill-opacity:1;stroke:none"
     class="ColorScheme-PositiveText"
     height="22"
     rx="2"
     width="22"
     id="rect1" />
  <path
     style="fill:currentColor;fill-opacity:0.6;stroke:none"
     class="ColorScheme-Text"
     d="M2 0C.892 0 0 .892 0 2v18c0 1.108.892 2 2 2h18c1.108 0 2-.892 2-2V2c0-1.108-.892-2-2-2zm0 1h18c.554 0 1 .446 1 1v18c0 .554-.446 1-1 1H2c-.554 0-1-.446-1-1V2c0-.554.446-1 1-1z"
     id="path2" />
  <g
     id="g2"
     transform="matrix(0.875,0,0,0.875,1.400296,-3.0114973)"
     style="stroke-width:1.14286">
    <circle
       transform="scale(1,-1)"
       cx="10.97109"
       cy="-16.01314"
       r="8"
       fill="#3daee9"
       id="circle1"
       style="stroke-width:1.14286;fill:#7137c8" />
    <path
       class="ColorScheme-Highlight"
       d="m 10.971091,10.569141 1.7,3.444 3.8,0.552 -2.75,2.6805 0.649,3.785 -3.399,-1.787 -3.3990003,1.787 0.649,-3.785 -2.75,-2.6805 3.8,-0.552 z"
       color="#3daee9"
       fill="#ffffff"
       id="path1"
       style="color:#3daee9;stroke-width:1.14286" />
  </g>
</svg>
