<?xml version="1.0" encoding="UTF-8" standalone="no"?>
<svg
   viewBox="0 0 22 22"
   version="1.1"
   id="svg2"
   sodipodi:docname="package-installed-locked.svg"
   inkscape:version="1.4.2 (unknown)"
   xmlns:inkscape="http://www.inkscape.org/namespaces/inkscape"
   xmlns:sodipodi="http://sodipodi.sourceforge.net/DTD/sodipodi-0.dtd"
   xmlns="http://www.w3.org/2000/svg"
   xmlns:svg="http://www.w3.org/2000/svg">
  <defs
     id="defs2" />
  <sodipodi:namedview
     id="namedview2"
     pagecolor="#ffffff"
     bordercolor="#000000"
     borderopacity="0.25"
     inkscape:showpageshadow="2"
     inkscape:pageopacity="0.0"
     inkscape:pagecheckerboard="0"
     inkscape:deskcolor="#d1d1d1"
     inkscape:zoom="24.459466"
     inkscape:cx="11.140881"
     inkscape:cy="14.94309"
     inkscape:current-layer="svg2" />
  <style
     type="text/css"
     id="current-color-scheme">
        .ColorScheme-Highlight {
            color:#3daee9;
        }
        .ColorScheme-Text {
            color:#eff0f1;
        }
    </style>
  <rect
     style="fill:#00a489;fill-opacity:1;stroke:none"
     class="ColorScheme-Highlight"
     height="22"
     rx="2"
     width="22"
     id="rect1" />
  <path
     d="M2 0C.892 0 0 .892 0 2v18c0 1.108.892 2 2 2h18c1.108 0 2-.892 2-2V2c0-1.108-.892-2-2-2zm0 1h18c.554 0 1 .446 1 1v18c0 .554-.446 1-1 1H2c-.554 0-1-.446-1-1V2c0-.554.446-1 1-1z"
     style="fill:currentColor;fill-opacity:0.6;stroke:none"
     class="ColorScheme-Text"
     id="path2" />
  <g
     id="g2"
     transform="translate(0,-17)">
    <path
       d="m 7,27 c -0.554,0 -1,0.446 -1,1 v 5 c 0,0.554 0.446,1 1,1 h 8 c 0.554,0 1,-0.446 1,-1 v -5 c 0,-0.554 -0.446,-1 -1,-1 z m 4,1.5 a 1,1 0 0 1 1,1 1,1 0 0 1 -0.5,0.864 V 32 a 0.5,0.5 0 1 1 -1,0 V 30.365 A 1,1 0 0 1 10,29.5 a 1,1 0 0 1 1,-1 z"
       id="path1-5"
       style="fill:#ffffff;paint-order:stroke fill markers" />
    <path
       d="m 11,22 c -1.662,0 -3,1.338 -3,3 v 6 c 0,1.662 1.338,3 3,3 -1.108,0 -2,-0.892 -2,-2 v -7 c 0,-1.108 0.892,-2 2,-2 1.108,0 2,0.892 2,2 v 7 c 0,1.108 -0.892,2 -2,2 1.662,0 3,-1.338 3,-3 v -6 c 0,-1.662 -1.338,-3 -3,-3 z"
       id="path2-3"
       style="fill:#ffffff;paint-order:stroke fill markers" />
  </g>
</svg>
