<?xml version="1.0" encoding="UTF-8" standalone="no"?>
<svg
   height="22"
   width="22"
   version="1.1"
   id="svg2"
   sodipodi:docname="package-installed-updated.svg"
   inkscape:version="1.4.2 (unknown)"
   xmlns:inkscape="http://www.inkscape.org/namespaces/inkscape"
   xmlns:sodipodi="http://sodipodi.sourceforge.net/DTD/sodipodi-0.dtd"
   xmlns="http://www.w3.org/2000/svg"
   xmlns:svg="http://www.w3.org/2000/svg">
  <defs
     id="defs2" />
  <sodipodi:namedview
     id="namedview2"
     pagecolor="#ffffff"
     bordercolor="#000000"
     borderopacity="0.25"
     inkscape:showpageshadow="2"
     inkscape:pageopacity="0.0"
     inkscape:pagecheckerboard="0"
     inkscape:deskcolor="#d1d1d1"
     inkscape:zoom="34.590909"
     inkscape:cx="11"
     inkscape:cy="11"
     inkscape:current-layer="svg2" />
  <style
     type="text/css"
     id="current-color-scheme">
        .ColorScheme-PositiveText {
            color:#27ae60;
        }
        .ColorScheme-Text {
            color:#eff0f1;
        }
    </style>
  <rect
     style="fill:#3f83d6;fill-opacity:1;stroke:none"
     class="ColorScheme-PositiveText"
     height="22"
     rx="2"
     width="22"
     id="rect1" />
  <path
     d="M17.586 5.414L9 14 4.414 9.414 3 10.828l6 6 10-10z"
     fill="#fff"
     id="path1" />
  <path
     style="fill:currentColor;fill-opacity:0.6;stroke:none"
     class="ColorScheme-Text"
     d="M2 0C.892 0 0 .892 0 2v18c0 1.108.892 2 2 2h18c1.108 0 2-.892 2-2V2c0-1.108-.892-2-2-2zm0 1h18c.554 0 1 .446 1 1v18c0 .554-.446 1-1 1H2c-.554 0-1-.446-1-1V2c0-.554.446-1 1-1z"
     id="path2" />
</svg>
