<?xml version="1.0" encoding="UTF-8" standalone="no"?>
<svg
   height="22"
   width="22"
   version="1.1"
   id="svg2"
   sodipodi:docname="package-supported.svg"
   inkscape:version="1.4.2 (unknown)"
   xmlns:inkscape="http://www.inkscape.org/namespaces/inkscape"
   xmlns:sodipodi="http://sodipodi.sourceforge.net/DTD/sodipodi-0.dtd"
   xmlns="http://www.w3.org/2000/svg"
   xmlns:svg="http://www.w3.org/2000/svg">
  <defs
     id="defs2" />
  <sodipodi:namedview
     id="namedview2"
     pagecolor="#ffffff"
     bordercolor="#000000"
     borderopacity="0.25"
     inkscape:showpageshadow="2"
     inkscape:pageopacity="0.0"
     inkscape:pagecheckerboard="0"
     inkscape:deskcolor="#d1d1d1"
     inkscape:zoom="24.459466"
     inkscape:cx="16.292261"
     inkscape:cy="13.307731"
     inkscape:current-layer="svg2" />
  <style
     type="text/css"
     id="current-color-scheme">
        .ColorScheme-NeutralText {
            color:#f67400;
        }
        .ColorScheme-Text {
            color:#eff0f1;
        }
    </style>
  <rect
     style="fill:#ffc299;fill-opacity:1;stroke:none"
     class="ColorScheme-NeutralText"
     height="22"
     rx="2"
     width="22"
     id="rect1" />
  <path
     d="M2 0C.892 0 0 .892 0 2v18c0 1.108.892 2 2 2h18c1.108 0 2-.892 2-2V2c0-1.108-.892-2-2-2zm0 1h18c.554 0 1 .446 1 1v18c0 .554-.446 1-1 1H2c-.554 0-1-.446-1-1V2c0-.554.446-1 1-1z"
     style="fill:currentColor;fill-opacity:0.6;stroke:none"
     class="ColorScheme-Text"
     id="path2" />
  <g
     fill-rule="nonzero"
     id="g3"
     transform="matrix(1.1428571,0,0,1.1428571,1.8571432,1.8571432)"
     style="stroke-width:0.874999">
    <path
       d="M 8,1 6,3 H 3 v 3 l -2,2 2,2 v 3 h 3 l 2,2 2,-2 h 3 V 10 L 15,8 13,6 V 3 h -3 z"
       fill="#f57f17"
       id="path2-3"
       style="stroke-width:0.874999;fill:#ff7f2a" />
    <path
       transform="matrix(0.861776,0,0,0.861776,1.15438,0.730918)"
       d="M 13.354,3.966 C 13.744,3.525 13.349,3.098 12.876,3.589 L 6,10.56 3.094,8.469 C 2.576,8.083 2.147,8.609 2.509,9.055 L 6.09,13.5 Z"
       fill="#e4e4e4"
       id="path3"
       style="stroke-width:0.874999;fill:#f2f2f2;fill-opacity:1" />
  </g>
</svg>
