<?xml version="1.0" encoding="UTF-8" standalone="no"?>
<svg
   width="64"
   height="64"
   fill="none"
   version="1.1"
   id="svg23"
   sodipodi:docname="folder-sign.svg"
   inkscape:version="1.4.2 (unknown)"
   xmlns:inkscape="http://www.inkscape.org/namespaces/inkscape"
   xmlns:sodipodi="http://sodipodi.sourceforge.net/DTD/sodipodi-0.dtd"
   xmlns:xlink="http://www.w3.org/1999/xlink"
   xmlns="http://www.w3.org/2000/svg"
   xmlns:svg="http://www.w3.org/2000/svg">
  <sodipodi:namedview
     id="namedview23"
     pagecolor="#ffffff"
     bordercolor="#000000"
     borderopacity="0.25"
     inkscape:showpageshadow="2"
     inkscape:pageopacity="0.0"
     inkscape:pagecheckerboard="0"
     inkscape:deskcolor="#d1d1d1"
     inkscape:zoom="8"
     inkscape:cx="41.5"
     inkscape:cy="36.4375"
     inkscape:current-layer="svg23"
     showgrid="true">
    <inkscape:grid
       id="grid23"
       units="px"
       originx="0"
       originy="0"
       spacingx="1"
       spacingy="1"
       empcolor="#0099e5"
       empopacity="0.30196078"
       color="#0099e5"
       opacity="0.14901961"
       empspacing="5"
       enabled="true"
       visible="true" />
  </sodipodi:namedview>
  <defs
     id="defs23">
    <linearGradient
       id="linearGradient30"
       inkscape:collect="always">
      <stop
         style="stop-color:#000000;stop-opacity:1;"
         offset="0"
         id="stop30" />
      <stop
         style="stop-color:#000000;stop-opacity:0.19607843;"
         offset="0.80361378"
         id="stop32" />
      <stop
         style="stop-color:#000000;stop-opacity:0;"
         offset="0.83011484"
         id="stop33" />
      <stop
         style="stop-color:#000000;stop-opacity:0;"
         offset="1"
         id="stop31" />
    </linearGradient>
    <linearGradient
       id="a"
       x1="56"
       x2="48.474"
       y1="34"
       y2="8.195"
       gradientUnits="userSpaceOnUse">
      <stop
         stop-color="#2E2E41"
         id="stop8"
         style="stop-color:#6f7c91;stop-opacity:1" />
      <stop
         offset="1"
         stop-color="#566C80"
         id="stop9"
         style="stop-color:#4f6274;stop-opacity:1;" />
    </linearGradient>
    <linearGradient
       id="b"
       x1="50"
       x2="1.22"
       y1="54"
       y2="14.976"
       gradientUnits="userSpaceOnUse">
      <stop
         stop-color="#5200FF"
         id="stop10" />
      <stop
         offset=".906"
         stop-color="#0085FF"
         id="stop11" />
    </linearGradient>
    <linearGradient
       id="c"
       x1="54"
       x2="10.871"
       y1="54"
       y2="18.713"
       gradientUnits="userSpaceOnUse">
      <stop
         offset=".378"
         stop-color="#FF7E07"
         id="stop12" />
      <stop
         offset="1"
         stop-color="#FFE607"
         id="stop13" />
    </linearGradient>
    <linearGradient
       id="d"
       x1="52"
       x2="14.05"
       y1="54"
       y2="14.053"
       gradientUnits="userSpaceOnUse">
      <stop
         offset=".296"
         stop-color="#71706E"
         id="stop14" />
      <stop
         offset="1"
         stop-color="#B9AA99"
         id="stop15" />
    </linearGradient>
    <linearGradient
       id="e"
       x1="21.75"
       x2="21.75"
       y1="22"
       y2="24"
       gradientUnits="userSpaceOnUse"
       gradientTransform="matrix(0.92307669,0,0,1,2.4615383,0)">
      <stop
         stop-color="#fff"
         id="stop16" />
      <stop
         offset=".705"
         stop-color="#E6E6E6"
         id="stop17" />
    </linearGradient>
    <linearGradient
       id="f"
       x1="20.5"
       x2="20.5"
       y1="26"
       y2="28"
       gradientUnits="userSpaceOnUse"
       gradientTransform="matrix(0.92307669,0,0,1,2.4615383,0)">
      <stop
         stop-color="#fff"
         id="stop18" />
      <stop
         offset=".705"
         stop-color="#E6E6E6"
         id="stop19" />
    </linearGradient>
    <linearGradient
       id="g"
       x1="56"
       x2="31.627"
       y1="60"
       y2="18.218"
       gradientUnits="userSpaceOnUse">
      <stop
         offset=".127"
         stop-color="#2E2E41"
         id="stop20"
         style="stop-color:#535d6c;stop-opacity:1" />
      <stop
         offset="0.87699997"
         stop-color="#566C80"
         id="stop21"
         style="stop-color:#29343d;stop-opacity:1;" />
    </linearGradient>
    <linearGradient
       id="h"
       x1="40.696"
       x2="40.696"
       y1="46"
       y2="42"
       gradientUnits="userSpaceOnUse">
      <stop
         offset=".341"
         stop-color="#2E2E41"
         id="stop22" />
      <stop
         offset="1"
         stop-color="#566C80"
         id="stop23" />
    </linearGradient>
    <linearGradient
       inkscape:collect="always"
       xlink:href="#linearGradient30"
       id="linearGradient31"
       x1="30"
       y1="60"
       x2="30"
       y2="25"
       gradientUnits="userSpaceOnUse"
       gradientTransform="matrix(0.92307669,0,0,1,2.4615383,0)" />
    <linearGradient
       id="h-6"
       x1="21.998775"
       x2="21.998775"
       y1="39.824768"
       y2="35.824772"
       gradientUnits="userSpaceOnUse">
      <stop
         offset="0.34099999"
         stop-color="#2E2E41"
         id="stop22-7" />
      <stop
         offset="1"
         stop-color="#566C80"
         id="stop23-5" />
    </linearGradient>
    <linearGradient
       id="h-6-2"
       x1="22.000006"
       x2="22.000006"
       y1="41"
       y2="37"
       gradientUnits="userSpaceOnUse"
       gradientTransform="matrix(0.92307674,0,0,1,2.4615384,0)">
      <stop
         offset="0.5"
         stop-color="#2E2E41"
         id="stop22-7-9" />
      <stop
         offset="1"
         stop-color="#566C80"
         id="stop23-5-1" />
    </linearGradient>
  </defs>
  <g
     transform="matrix(1.1666667,0,0,1.1666667,36.539317,-1172.4227)"
     id="g2"
     style="fill:#f9f9f9;fill-opacity:0.603922;stroke-width:1.57143"
     inkscape:transform-center-x="3.541502"
     inkscape:transform-center-y="-10.793149" />
  <g
     id="g1"
     transform="matrix(1.0833333,0,0,1,-2.6666664,0)"
     style="stroke-width:0.960768">
    <path
       d="m 8,26 a 6,6 0 0 1 6,-6 h 36 a 6,6 0 0 1 6,6 v 8 H 8 Z"
       id="path1"
       style="fill:#8894aa;fill-opacity:1;stroke-width:0.960768" />
    <path
       d="m 10,8 a 4,4 0 0 1 4,-4 h 32 a 4,4 0 0 1 4,4 v 42 a 4,4 0 0 1 -4,4 H 14 a 4,4 0 0 1 -4,-4 z"
       id="path2"
       style="fill:#ebcb8b;fill-opacity:1;stroke-width:0.960768" />
    <path
       d="m 18,14 a 4,4 0 0 1 4,-4 h 28 a 4,4 0 0 1 4,4 v 36 a 4,4 0 0 1 -4,4 H 22 a 4,4 0 0 1 -4,-4 z"
       id="path3"
       style="fill:#88c0d0;fill-opacity:1;stroke-width:0.960768" />
    <path
       d="m 12,20 a 4,4 0 0 1 4,-4 h 32 a 4,4 0 0 1 4,4 v 30 a 4,4 0 0 1 -4,4 H 16 a 4,4 0 0 1 -4,-4 z"
       id="path4"
       style="fill:#b48ead;fill-opacity:1;stroke-width:0.960768" />
    <path
       d="M 30,23 A 1,1 0 0 0 29,22 H 19 a 1,1 0 1 0 0,2 h 10 a 1,1 0 0 0 1,-1 z"
       id="path5"
       style="fill:url(#e);stroke-width:0.960768" />
    <path
       d="m 26,27 a 1,1 0 0 0 -1,-1 h -6 a 1,1 0 1 0 0,2 h 6 a 1,1 0 0 0 1,-1 z"
       id="path6"
       style="fill:url(#f);stroke-width:0.960768" />
    <rect
       style="opacity:0.209;fill:url(#linearGradient31);fill-opacity:1;stroke-width:0.960762"
       width="48"
       height="34.899998"
       x="8"
       y="25.1"
       rx="5.5384603"
       ry="6"
       id="rect1" />
    <path
       d="m 8,33 a 2,2 0 0 1 2,-2 h 44 a 2,2 0 0 1 2,2 v 20 a 6,6 0 0 1 -6,6 H 14 A 6,6 0 0 1 8,53 Z"
       id="path7-3-6"
       style="fill:#556177;fill-opacity:1;stroke-width:0.960768" />
    <path
       d="m 11.692308,38.000001 a 1.9382242,2 0 0 1 1.938221,-2 h 15.505797 a 1.9382242,2 0 1 1 0,3.999997 H 13.630529 a 1.9382242,2 0 0 1 -1.938221,-1.999997 z"
       id="path8-5-7"
       style="fill:url(#h-6-2);stroke-width:0.960768" />
  </g>
  <path
     d="m 53.641682,38.003355 c -0.07281,-0.01013 -0.14951,0.0028 -0.22474,0.03719 -0.04092,0.02032 -0.226481,0.195418 -0.411629,0.387817 l -0.337579,0.35367 -0.09702,-0.08405 c -0.136397,-0.113718 -0.276477,-0.151663 -0.416655,-0.107438 -0.09683,0.03024 -0.345023,0.280249 -1.979899,1.974764 -1.031619,1.068079 -1.872253,1.951725 -1.871887,1.966925 8.44e-4,0.01236 0.329342,0.334836 0.728953,0.711498 l 0.730525,0.6892 1.219271,-1.266131 c 0.670976,-0.696463 1.2272,-1.258641 1.237753,-1.248716 0.03476,0.03148 0.03126,0.640168 -0.0053,0.831499 -0.0208,0.104274 -0.07949,0.289161 -0.136225,0.409821 -0.100285,0.215713 -0.109484,0.227976 -1.621662,1.802673 -0.836296,0.870444 -1.534528,1.611288 -1.549093,1.642097 -0.04069,0.08483 -0.02468,0.254351 0.02996,0.356875 0.09409,0.173064 0.367762,0.256214 0.540008,0.160796 0.11906,-0.06626 3.117255,-3.210683 3.22094,-3.380797 0.301332,-0.484628 0.429115,-1.135275 0.353694,-1.799067 -0.02906,-0.2633 -0.07898,-0.51899 -0.134802,-0.703109 -0.01769,-0.04976 0.02695,-0.107428 0.308191,-0.400848 0.265268,-0.28052 0.327979,-0.360832 0.341555,-0.439779 0.02887,-0.16833 -0.01129,-0.268718 -0.164624,-0.417418 l -0.142039,-0.138934 0.359835,-0.376566 c 0.295236,-0.311649 0.360979,-0.39445 0.374403,-0.473606 0.04106,-0.252382 -0.134174,-0.461301 -0.351755,-0.489153 z m -5.915577,5.11421 c -0.0082,5.87e-4 -1.107024,1.138745 -2.443898,2.526475 -2.150725,2.234956 -2.458207,2.567085 -2.666766,2.858929 -0.414366,0.581239 -0.89761,1.484848 -1.246614,2.321078 -0.225616,0.536203 -0.227595,0.485047 0.0091,0.393129 0.729826,-0.28642 1.696871,-0.7768 2.270454,-1.15352 0.560927,-0.368726 0.660694,-0.467536 3.159293,-3.061118 l 2.40348,-2.497533 -0.736189,-0.693998 c -0.404847,-0.381651 -0.740819,-0.693563 -0.748572,-0.69338 z m -0.52018,6.373648 c -0.101148,-0.02013 -0.206731,-0.02805 -0.276531,-0.02186 l -1.92e-4,0.0019 c -0.330914,0.02994 -0.7233,0.26441 -0.934861,0.562959 -0.05591,0.07751 -0.153436,0.256277 -0.216491,0.392273 -0.05964,0.139037 -0.115623,0.254335 -0.119103,0.256985 -0.02844,0.02704 -0.663551,0.102371 -1.033866,0.121673 -0.870738,0.04798 -1.110341,0.07578 -1.203191,0.142625 -0.182159,0.131006 -0.07345,0.297069 0.168221,0.256972 0.0636,-0.01219 0.334062,-0.03275 0.59344,-0.04573 0.259804,-0.01256 0.656902,-0.04793 0.882683,-0.07109 0.226775,-0.02687 0.417347,-0.03917 0.42557,-0.02857 0.008,0.0095 -0.04852,0.180888 -0.132589,0.379567 l -0.149496,0.356321 -0.24554,0.07416 c -0.134061,0.04104 -0.327897,0.11399 -0.431802,0.167531 -0.314349,0.156236 -0.399076,0.388707 -0.212374,0.565916 0.101912,0.09586 0.412565,0.128955 0.614955,0.06703 0.179635,-0.0567 0.288339,-0.152703 0.455207,-0.416343 0.08868,-0.136159 0.153617,-0.205841 0.197865,-0.21011 0.03604,-0.0053 0.350891,-0.03108 0.700371,-0.06174 0.349659,-0.02785 0.667344,-0.05639 0.708472,-0.06082 0.06639,-0.008 0.07293,-8.94e-4 0.04764,0.05533 -0.01636,0.03595 -0.08642,0.136822 -0.156479,0.225116 -0.06979,0.08835 -0.130353,0.195973 -0.135793,0.241771 -0.01128,0.09514 0.05851,0.199892 0.126558,0.182814 0.02586,-0.0063 0.06044,-0.01198 0.07641,-0.01022 0.01502,0.002 0.09011,-0.0394 0.165479,-0.09269 0.140878,-0.09877 0.514272,-0.619057 0.528137,-0.735771 0.0069,-0.05784 0.05458,-0.0677 0.07713,-0.01756 0.008,0.01582 0.07481,0.05186 0.15023,0.07896 0.105486,0.03979 0.134437,0.06461 0.128591,0.113818 -0.01128,0.09513 0.1309,0.252459 0.267579,0.296032 0.106365,0.03212 0.248914,0.02434 0.40469,-0.01754 0.05609,-0.01606 0.05832,-0.0081 0.03058,0.06833 -0.01778,0.04797 -0.127336,0.194097 -0.240687,0.327363 -0.240597,0.27691 -0.545521,0.72664 -0.635726,0.930922 -0.07481,0.174827 -0.068,0.312819 0.01946,0.388292 0.08022,0.06604 0.225886,0.0557 0.309716,-0.01529 0.07293,-0.06323 0.515586,-0.7608 0.685688,-1.082951 0.121172,-0.225707 0.171974,-0.285317 0.409378,-0.481833 0.195215,-0.16071 0.257023,-0.197209 0.211214,-0.131157 -0.07719,0.125065 -0.08633,0.22628 -0.02633,0.295349 0.12996,0.14913 0.356175,0.04634 0.579353,-0.26539 0.132017,-0.183725 0.219799,-0.232094 0.645633,-0.372738 l 0.221532,-0.07087 -0.03538,0.11091 c -0.01894,0.05936 -0.112229,0.226781 -0.204347,0.368269 -0.1822,0.286876 -0.232302,0.47709 -0.165055,0.65284 0.0448,0.120506 0.106723,0.131503 0.403859,0.06731 0.412939,-0.0857 0.967339,-0.329957 1.122793,-0.48905 0.212214,-0.224491 0.296459,-0.453872 0.19466,-0.546618 -0.10507,-0.09613 -0.174068,-0.07013 -0.345331,0.124662 -0.229844,0.265769 -0.498243,0.462091 -0.744764,0.548594 -0.115327,0.04317 -0.215799,0.06768 -0.224096,0.05735 -0.0104,-0.01332 0.315373,-0.64481 0.485348,-0.939394 0.03502,-0.06062 0.06844,-0.138326 0.07251,-0.17177 0.01028,-0.08592 -0.08716,-0.196524 -0.18021,-0.20739 -0.04284,-0.0054 -0.25891,0.05336 -0.476224,0.133785 -0.45014,0.15914 -0.424076,0.180847 -0.268724,-0.199421 0.09344,-0.234736 0.07926,-0.301987 -0.06738,-0.334818 -0.141185,-0.0315 -0.202142,0.008 -0.360021,0.222748 -0.102366,0.146599 -0.22906,0.262922 -0.466624,0.434431 -0.312932,0.224664 -0.326692,0.232213 -0.386777,0.178826 -0.09091,-0.08241 -0.148143,-0.07871 -0.404052,0.01198 -0.249949,0.08916 -0.329653,0.09552 -0.379939,0.01722 -0.04294,-0.06395 0.03848,-0.08566 0.480446,-0.118066 0.428591,-0.03077 0.483372,-0.04696 0.493572,-0.132801 0.01644,-0.138352 -0.083,-0.283055 -0.277369,-0.395966 -0.335502,-0.197655 -0.373701,-0.212077 -0.533347,-0.190605 -0.172487,0.02279 -0.449277,0.230718 -0.500636,0.374404 -0.05324,0.149633 -0.152883,0.09102 -0.132901,-0.07726 0.0081,-0.07086 -0.05778,-0.258603 -0.103982,-0.295248 -0.09712,-0.08313 -0.285636,0.05102 -0.449625,0.318218 l -0.128513,0.205983 -0.235326,0.02233 c -0.305564,0.02917 -1.1918,0.100103 -1.309389,0.108841 -0.07576,0.0036 -0.08762,-0.0022 -0.06694,-0.04602 0.01523,-0.02841 0.0688,-0.159267 0.122336,-0.293274 0.141346,-0.36935 0.175847,-0.415728 0.320949,-0.448306 0.174323,-0.03843 0.768354,-0.212535 0.922656,-0.269077 0.07259,-0.02652 0.223726,-0.113737 0.337119,-0.193846 0.347755,-0.251943 0.428726,-0.513589 0.228434,-0.736084 -0.05517,-0.05987 -0.130142,-0.12385 -0.165213,-0.143629 -0.05484,-0.029 -0.151511,-0.05524 -0.252956,-0.07156 z m -0.355427,0.322076 c 0.04302,0.0012 0.09421,0.009 0.157886,0.02322 0.163296,0.02785 0.227029,0.05144 0.267476,0.105353 0.05422,0.06787 0.05371,0.07079 -0.01316,0.181811 -0.04684,0.06932 -0.14291,0.145516 -0.260358,0.206883 -0.204596,0.10698 -0.825997,0.27372 -0.839588,0.228852 -0.01618,-0.07369 0.223581,-0.472235 0.360834,-0.593384 0.137029,-0.121625 0.198767,-0.158941 0.328931,-0.150975 z m -1.898864,2.384382 c 0.024,0.0059 0.02172,0.0257 -6.94e-4,0.06025 -0.0504,0.07178 -0.162098,0.114967 -0.218282,0.08649 -0.06516,-0.03509 -0.04222,-0.06939 0.07272,-0.112652 0.0761,-0.02783 0.124883,-0.03976 0.148373,-0.03555 z"
     class="ColorScheme-Text"
     id="path14466-5-6-3"
     style="fill:#88c0d0;fill-opacity:1;stroke-width:1.10001" />
</svg>
