<?xml version="1.0" encoding="UTF-8" standalone="no"?>
<svg
   width="64"
   height="64"
   fill="none"
   version="1.1"
   id="svg23"
   sodipodi:docname="folder-rpm.svg"
   inkscape:version="1.4.2 (unknown)"
   xmlns:inkscape="http://www.inkscape.org/namespaces/inkscape"
   xmlns:sodipodi="http://sodipodi.sourceforge.net/DTD/sodipodi-0.dtd"
   xmlns:xlink="http://www.w3.org/1999/xlink"
   xmlns="http://www.w3.org/2000/svg"
   xmlns:svg="http://www.w3.org/2000/svg">
  <sodipodi:namedview
     id="namedview23"
     pagecolor="#ffffff"
     bordercolor="#000000"
     borderopacity="0.25"
     inkscape:showpageshadow="2"
     inkscape:pageopacity="0.0"
     inkscape:pagecheckerboard="0"
     inkscape:deskcolor="#d1d1d1"
     inkscape:zoom="8"
     inkscape:cx="41.625"
     inkscape:cy="36.4375"
     inkscape:current-layer="svg23"
     showgrid="true">
    <inkscape:grid
       id="grid23"
       units="px"
       originx="0"
       originy="0"
       spacingx="1"
       spacingy="1"
       empcolor="#0099e5"
       empopacity="0.30196078"
       color="#0099e5"
       opacity="0.14901961"
       empspacing="5"
       enabled="true"
       visible="true" />
  </sodipodi:namedview>
  <defs
     id="defs23">
    <linearGradient
       id="linearGradient30"
       inkscape:collect="always">
      <stop
         style="stop-color:#000000;stop-opacity:1;"
         offset="0"
         id="stop30" />
      <stop
         style="stop-color:#000000;stop-opacity:0.19607843;"
         offset="0.80361378"
         id="stop32" />
      <stop
         style="stop-color:#000000;stop-opacity:0;"
         offset="0.83011484"
         id="stop33" />
      <stop
         style="stop-color:#000000;stop-opacity:0;"
         offset="1"
         id="stop31" />
    </linearGradient>
    <linearGradient
       id="a"
       x1="56"
       x2="48.474"
       y1="34"
       y2="8.195"
       gradientUnits="userSpaceOnUse">
      <stop
         stop-color="#2E2E41"
         id="stop8"
         style="stop-color:#6f7c91;stop-opacity:1" />
      <stop
         offset="1"
         stop-color="#566C80"
         id="stop9"
         style="stop-color:#4f6274;stop-opacity:1;" />
    </linearGradient>
    <linearGradient
       id="b"
       x1="50"
       x2="1.22"
       y1="54"
       y2="14.976"
       gradientUnits="userSpaceOnUse">
      <stop
         stop-color="#5200FF"
         id="stop10" />
      <stop
         offset=".906"
         stop-color="#0085FF"
         id="stop11" />
    </linearGradient>
    <linearGradient
       id="c"
       x1="54"
       x2="10.871"
       y1="54"
       y2="18.713"
       gradientUnits="userSpaceOnUse">
      <stop
         offset=".378"
         stop-color="#FF7E07"
         id="stop12" />
      <stop
         offset="1"
         stop-color="#FFE607"
         id="stop13" />
    </linearGradient>
    <linearGradient
       id="d"
       x1="52"
       x2="14.05"
       y1="54"
       y2="14.053"
       gradientUnits="userSpaceOnUse">
      <stop
         offset=".296"
         stop-color="#71706E"
         id="stop14" />
      <stop
         offset="1"
         stop-color="#B9AA99"
         id="stop15" />
    </linearGradient>
    <linearGradient
       id="e"
       x1="21.75"
       x2="21.75"
       y1="22"
       y2="24"
       gradientUnits="userSpaceOnUse"
       gradientTransform="matrix(0.92307669,0,0,1,2.4615383,0)">
      <stop
         stop-color="#fff"
         id="stop16" />
      <stop
         offset=".705"
         stop-color="#E6E6E6"
         id="stop17" />
    </linearGradient>
    <linearGradient
       id="f"
       x1="20.5"
       x2="20.5"
       y1="26"
       y2="28"
       gradientUnits="userSpaceOnUse"
       gradientTransform="matrix(0.92307669,0,0,1,2.4615383,0)">
      <stop
         stop-color="#fff"
         id="stop18" />
      <stop
         offset=".705"
         stop-color="#E6E6E6"
         id="stop19" />
    </linearGradient>
    <linearGradient
       id="g"
       x1="56"
       x2="31.627"
       y1="60"
       y2="18.218"
       gradientUnits="userSpaceOnUse">
      <stop
         offset=".127"
         stop-color="#2E2E41"
         id="stop20"
         style="stop-color:#535d6c;stop-opacity:1" />
      <stop
         offset="0.87699997"
         stop-color="#566C80"
         id="stop21"
         style="stop-color:#29343d;stop-opacity:1;" />
    </linearGradient>
    <linearGradient
       id="h"
       x1="40.696"
       x2="40.696"
       y1="46"
       y2="42"
       gradientUnits="userSpaceOnUse">
      <stop
         offset=".341"
         stop-color="#2E2E41"
         id="stop22" />
      <stop
         offset="1"
         stop-color="#566C80"
         id="stop23" />
    </linearGradient>
    <linearGradient
       inkscape:collect="always"
       xlink:href="#linearGradient30"
       id="linearGradient31"
       x1="30"
       y1="60"
       x2="30"
       y2="25"
       gradientUnits="userSpaceOnUse"
       gradientTransform="matrix(0.92307669,0,0,1,2.4615383,0)" />
    <linearGradient
       id="h-6"
       x1="21.998775"
       x2="21.998775"
       y1="39.824768"
       y2="35.824772"
       gradientUnits="userSpaceOnUse">
      <stop
         offset="0.34099999"
         stop-color="#2E2E41"
         id="stop22-7" />
      <stop
         offset="1"
         stop-color="#566C80"
         id="stop23-5" />
    </linearGradient>
    <linearGradient
       id="h-6-2"
       x1="22.000006"
       x2="22.000006"
       y1="41"
       y2="37"
       gradientUnits="userSpaceOnUse"
       gradientTransform="matrix(0.92307674,0,0,1,2.4615384,0)">
      <stop
         offset="0.5"
         stop-color="#2E2E41"
         id="stop22-7-9" />
      <stop
         offset="1"
         stop-color="#566C80"
         id="stop23-5-1" />
    </linearGradient>
  </defs>
  <g
     transform="matrix(1.1666667,0,0,1.1666667,36.539317,-1172.4227)"
     id="g2"
     style="fill:#f9f9f9;fill-opacity:0.603922;stroke-width:1.57143"
     inkscape:transform-center-x="3.541502"
     inkscape:transform-center-y="-10.793149" />
  <g
     id="g1"
     transform="matrix(1.0833333,0,0,1,-2.6666664,0)"
     style="stroke-width:0.960768">
    <path
       d="m 8,26 a 6,6 0 0 1 6,-6 h 36 a 6,6 0 0 1 6,6 v 8 H 8 Z"
       id="path1"
       style="fill:#8894aa;fill-opacity:1;stroke-width:0.960768" />
    <path
       d="m 10,8 a 4,4 0 0 1 4,-4 h 32 a 4,4 0 0 1 4,4 v 42 a 4,4 0 0 1 -4,4 H 14 a 4,4 0 0 1 -4,-4 z"
       id="path2"
       style="fill:#ebcb8b;fill-opacity:1;stroke-width:0.960768" />
    <path
       d="m 18,14 a 4,4 0 0 1 4,-4 h 28 a 4,4 0 0 1 4,4 v 36 a 4,4 0 0 1 -4,4 H 22 a 4,4 0 0 1 -4,-4 z"
       id="path3"
       style="fill:#88c0d0;fill-opacity:1;stroke-width:0.960768" />
    <path
       d="m 12,20 a 4,4 0 0 1 4,-4 h 32 a 4,4 0 0 1 4,4 v 30 a 4,4 0 0 1 -4,4 H 16 a 4,4 0 0 1 -4,-4 z"
       id="path4"
       style="fill:#b48ead;fill-opacity:1;stroke-width:0.960768" />
    <path
       d="M 30,23 A 1,1 0 0 0 29,22 H 19 a 1,1 0 1 0 0,2 h 10 a 1,1 0 0 0 1,-1 z"
       id="path5"
       style="fill:url(#e);stroke-width:0.960768" />
    <path
       d="m 26,27 a 1,1 0 0 0 -1,-1 h -6 a 1,1 0 1 0 0,2 h 6 a 1,1 0 0 0 1,-1 z"
       id="path6"
       style="fill:url(#f);stroke-width:0.960768" />
    <rect
       style="opacity:0.209;fill:url(#linearGradient31);fill-opacity:1;stroke-width:0.960762"
       width="48"
       height="34.899998"
       x="8"
       y="25.1"
       rx="5.5384603"
       ry="6"
       id="rect1" />
    <path
       d="m 8,33 a 2,2 0 0 1 2,-2 h 44 a 2,2 0 0 1 2,2 v 20 a 6,6 0 0 1 -6,6 H 14 A 6,6 0 0 1 8,53 Z"
       id="path7-3-6"
       style="fill:#556177;fill-opacity:1;stroke-width:0.960768" />
    <path
       d="m 11.692308,38.000001 a 1.9382242,2 0 0 1 1.938221,-2 h 15.505797 a 1.9382242,2 0 1 1 0,3.999997 H 13.630529 a 1.9382242,2 0 0 1 -1.938221,-1.999997 z"
       id="path8-5-7"
       style="fill:url(#h-6-2);stroke-width:0.960768" />
  </g>
  <g
     transform="matrix(0.03152709,0,0,0.03152678,34.965675,37.172422)"
     style="fill:#646464;stroke-width:1.99956"
     id="g26">
    <path
       d="m 350,26.25 c -44.543,0 -88.301,11.723 -126.88,33.996 -38.574,22.27 -70.609,54.305 -92.879,92.879 -22.27,38.574 -33.996,82.332 -33.996,126.88 0,67.297 26.734,131.84 74.32,179.43 47.59,47.586 112.13,74.32 179.43,74.32 67.3,0 131.84,-26.734 179.43,-74.32 47.586,-47.59 74.32,-112.13 74.32,-179.43 0,-44.543 -11.723,-88.301 -33.996,-126.88 C 547.479,114.551 515.444,82.516 476.87,60.246 438.296,37.973 394.538,26.25 349.99,26.25 Z m 8.75,41.766 c 12.57,0.52734 25.141,2.2891 37.633,5.0938 7.6404,1.9066 10.853,2.6571 16.918,4.5467 2.7539,0.85938 5.5352,1.6055 8.2695,2.5977 9.3203,3.3398 18.254,7.3555 26.832,11.863 l -19.961,34.555 c -6.4219,-3.3945 -13.07,-6.4883 -20.027,-9.0586 -16.246,-6.0039 -32.98,-9.3242 -49.664,-10.184 z m -17.5,0.26562 v 39.203 c -24.34,1.2773 -48.152,7.7891 -69.727,19.141 l -19.789,-34.316 c 11.262,-5.8867 22.863,-11.059 34.934,-14.832 4.8175,-1.5029 9.0571,-2.4516 16.984,-4.2738 12.34,-2.7656 24.895,-4.3906 37.598,-4.9219 z m 122.29,32.609 c 10.762,6.8555 20.719,14.699 29.941,23.273 5.3836,5.133 8.049,8.013 12.309,12.477 8.5078,9.3516 16.234,19.367 22.934,30.078 l -35.238,20.336 h -0.004 c -0.21875,0.125 -0.4375,0.25781 -0.64453,0.39844 -12.43,-20.48 -29.172,-38.199 -49.355,-51.781 z m -227.02,0.19922 19.996,34.59 c -13.578,9.0586 -26.02,20.113 -36.742,33.188 -4.832,5.8945 -9.1211,12.07 -13.023,18.422 -0.082,-0.0664 -0.16406,-0.13281 -0.24609,-0.19922 l -35.648,-20.609 c 4.9023,-7.7539 10.266,-15.301 16.27,-22.488 2.207,-2.6445 4.6953,-4.9414 7.0078,-7.4531 4.9752,-5.5234 8.0792,-8.4669 12.234,-12.507 9.4062,-8.668 19.527,-16.273 30.148,-23.004 z m 113.48,56.5 25.977,151.62 v -0.004 c 5.7891,6.4141 9.0039,14.738 9.0234,23.379 0,9.2812 -3.6875,18.184 -10.25,24.75 -6.5664,6.5625 -15.469,10.25 -24.75,10.25 -9.281,0 -18.184,-3.6875 -24.75,-10.25 -6.5625,-6.5664 -10.25,-15.469 -10.25,-24.75 0.0195,-8.6406 3.2344,-16.965 9.0234,-23.379 z m -187.89,24.133 35.648,20.574 v -0.004 c 0.1875,0.11719 0.38281,0.22656 0.57812,0.33203 -10.398,21.785 -15.793,45.375 -16.168,69.145 -0.93359,-0.31641 -1.918,-0.47266 -2.9062,-0.46094 h -40.672 c 0.4375,-12.633 2.0547,-25.203 4.75,-37.562 1.5238,-6.5415 2.4514,-10.055 4.4095,-16.922 3.6992,-12.043 8.4609,-23.812 14.355,-35.137 z m 375.29,0.26562 c 5.7656,11.164 10.441,22.906 14.184,35.035 1.6934,6.4096 3.3176,12.275 4.4809,16.91 2.7383,12.387 4.5508,25.07 5.0586,38.043 l -43.648,0.52734 c -0.48828,-24.602 -6.3164,-48.242 -16.441,-69.625 v 0.004 c 0.41016,-0.16797 0.80859,-0.36719 1.1914,-0.59766 z m -354.65,106.16 c 1.9453,23.918 8.9102,47.633 21.09,69.418 l -39.992,22.457 c -6.3828,-11.906 -11.434,-24.262 -15.414,-36.844 -2.6861,-8.8822 -2.7659,-10.58 -4.5787,-16.902 -2.8281,-12.379 -4.6367,-24.898 -5.2305,-37.461 h 40.641 c 1.1953,0.0156 2.3828,-0.21875 3.4844,-0.67969 z"
       style="fill:#88c0d0;stroke-width:1.99956;fill-opacity:1"
       id="path25" />
    <path
       d="m 358.75,332.5 c 0,4.8359 -3.918,8.75 -8.75,8.75 -4.832,0 -8.75,-3.9141 -8.75,-8.75 0,-4.832 3.918,-8.75 8.75,-8.75 4.832,0 8.75,3.918 8.75,8.75 z"
       style="fill:#646464;stroke-width:1.99956"
       id="path26" />
  </g>
</svg>
