<?xml version="1.0" encoding="UTF-8" standalone="no"?>
<svg
   width="64"
   height="64"
   fill="none"
   version="1.1"
   id="svg23"
   sodipodi:docname="folder-steam.svg"
   inkscape:version="1.4.2 (unknown)"
   xmlns:inkscape="http://www.inkscape.org/namespaces/inkscape"
   xmlns:sodipodi="http://sodipodi.sourceforge.net/DTD/sodipodi-0.dtd"
   xmlns:xlink="http://www.w3.org/1999/xlink"
   xmlns="http://www.w3.org/2000/svg"
   xmlns:svg="http://www.w3.org/2000/svg">
  <sodipodi:namedview
     id="namedview23"
     pagecolor="#ffffff"
     bordercolor="#000000"
     borderopacity="0.25"
     inkscape:showpageshadow="2"
     inkscape:pageopacity="0.0"
     inkscape:pagecheckerboard="0"
     inkscape:deskcolor="#d1d1d1"
     inkscape:zoom="8"
     inkscape:cx="58.4375"
     inkscape:cy="28.8125"
     inkscape:current-layer="svg23"
     showgrid="true">
    <inkscape:grid
       id="grid23"
       units="px"
       originx="0"
       originy="0"
       spacingx="1"
       spacingy="1"
       empcolor="#0099e5"
       empopacity="0.30196078"
       color="#0099e5"
       opacity="0.14901961"
       empspacing="5"
       enabled="true"
       visible="true" />
  </sodipodi:namedview>
  <defs
     id="defs23">
    <linearGradient
       id="linearGradient30"
       inkscape:collect="always">
      <stop
         style="stop-color:#000000;stop-opacity:1;"
         offset="0"
         id="stop30" />
      <stop
         style="stop-color:#000000;stop-opacity:0.19607843;"
         offset="0.80361378"
         id="stop32" />
      <stop
         style="stop-color:#000000;stop-opacity:0;"
         offset="0.83011484"
         id="stop33" />
      <stop
         style="stop-color:#000000;stop-opacity:0;"
         offset="1"
         id="stop31" />
    </linearGradient>
    <linearGradient
       id="a"
       x1="56"
       x2="48.474"
       y1="34"
       y2="8.195"
       gradientUnits="userSpaceOnUse">
      <stop
         stop-color="#2E2E41"
         id="stop8"
         style="stop-color:#6f7c91;stop-opacity:1" />
      <stop
         offset="1"
         stop-color="#566C80"
         id="stop9"
         style="stop-color:#4f6274;stop-opacity:1;" />
    </linearGradient>
    <linearGradient
       id="b"
       x1="50"
       x2="1.22"
       y1="54"
       y2="14.976"
       gradientUnits="userSpaceOnUse">
      <stop
         stop-color="#5200FF"
         id="stop10" />
      <stop
         offset=".906"
         stop-color="#0085FF"
         id="stop11" />
    </linearGradient>
    <linearGradient
       id="c"
       x1="54"
       x2="10.871"
       y1="54"
       y2="18.713"
       gradientUnits="userSpaceOnUse">
      <stop
         offset=".378"
         stop-color="#FF7E07"
         id="stop12" />
      <stop
         offset="1"
         stop-color="#FFE607"
         id="stop13" />
    </linearGradient>
    <linearGradient
       id="d"
       x1="52"
       x2="14.05"
       y1="54"
       y2="14.053"
       gradientUnits="userSpaceOnUse">
      <stop
         offset=".296"
         stop-color="#71706E"
         id="stop14" />
      <stop
         offset="1"
         stop-color="#B9AA99"
         id="stop15" />
    </linearGradient>
    <linearGradient
       id="e"
       x1="21.75"
       x2="21.75"
       y1="22"
       y2="24"
       gradientUnits="userSpaceOnUse"
       gradientTransform="matrix(0.92307669,0,0,1,2.4615383,0)">
      <stop
         stop-color="#fff"
         id="stop16" />
      <stop
         offset=".705"
         stop-color="#E6E6E6"
         id="stop17" />
    </linearGradient>
    <linearGradient
       id="f"
       x1="20.5"
       x2="20.5"
       y1="26"
       y2="28"
       gradientUnits="userSpaceOnUse"
       gradientTransform="matrix(0.92307669,0,0,1,2.4615383,0)">
      <stop
         stop-color="#fff"
         id="stop18" />
      <stop
         offset=".705"
         stop-color="#E6E6E6"
         id="stop19" />
    </linearGradient>
    <linearGradient
       id="g"
       x1="56"
       x2="31.627"
       y1="60"
       y2="18.218"
       gradientUnits="userSpaceOnUse">
      <stop
         offset=".127"
         stop-color="#2E2E41"
         id="stop20"
         style="stop-color:#535d6c;stop-opacity:1" />
      <stop
         offset="0.87699997"
         stop-color="#566C80"
         id="stop21"
         style="stop-color:#29343d;stop-opacity:1;" />
    </linearGradient>
    <linearGradient
       id="h"
       x1="40.696"
       x2="40.696"
       y1="46"
       y2="42"
       gradientUnits="userSpaceOnUse">
      <stop
         offset=".341"
         stop-color="#2E2E41"
         id="stop22" />
      <stop
         offset="1"
         stop-color="#566C80"
         id="stop23" />
    </linearGradient>
    <linearGradient
       inkscape:collect="always"
       xlink:href="#linearGradient30"
       id="linearGradient31"
       x1="30"
       y1="60"
       x2="30"
       y2="25"
       gradientUnits="userSpaceOnUse"
       gradientTransform="matrix(0.92307669,0,0,1,2.4615383,0)" />
    <linearGradient
       id="h-6"
       x1="21.998775"
       x2="21.998775"
       y1="39.824768"
       y2="35.824772"
       gradientUnits="userSpaceOnUse">
      <stop
         offset="0.34099999"
         stop-color="#2E2E41"
         id="stop22-7" />
      <stop
         offset="1"
         stop-color="#566C80"
         id="stop23-5" />
    </linearGradient>
    <linearGradient
       id="h-6-2"
       x1="22.000006"
       x2="22.000006"
       y1="41"
       y2="37"
       gradientUnits="userSpaceOnUse"
       gradientTransform="matrix(0.92307674,0,0,1,2.4615384,0)">
      <stop
         offset="0.5"
         stop-color="#2E2E41"
         id="stop22-7-9" />
      <stop
         offset="1"
         stop-color="#566C80"
         id="stop23-5-1" />
    </linearGradient>
    <linearGradient
       id="h-6-2-6"
       x1="22.000006"
       x2="22.000006"
       y1="41"
       y2="37"
       gradientUnits="userSpaceOnUse">
      <stop
         offset="0.5"
         stop-color="#2E2E41"
         id="stop22-7-9-7" />
      <stop
         offset="1"
         stop-color="#566C80"
         id="stop23-5-1-5" />
    </linearGradient>
  </defs>
  <g
     transform="matrix(1.1666667,0,0,1.1666667,36.539317,-1172.4227)"
     id="g2"
     style="fill:#f9f9f9;fill-opacity:0.603922;stroke-width:1.57143"
     inkscape:transform-center-x="3.541502"
     inkscape:transform-center-y="-10.793149" />
  <g
     id="g1"
     transform="matrix(1.0833333,0,0,1,-2.6666664,0)"
     style="stroke-width:0.960768">
    <path
       d="m 8,26 a 6,6 0 0 1 6,-6 h 36 a 6,6 0 0 1 6,6 v 8 H 8 Z"
       id="path1"
       style="fill:#8894aa;fill-opacity:1;stroke-width:0.960768" />
    <path
       d="m 10,8 a 4,4 0 0 1 4,-4 h 32 a 4,4 0 0 1 4,4 v 42 a 4,4 0 0 1 -4,4 H 14 a 4,4 0 0 1 -4,-4 z"
       id="path2"
       style="fill:#ebcb8b;fill-opacity:1;stroke-width:0.960768" />
    <path
       d="m 18,14 a 4,4 0 0 1 4,-4 h 28 a 4,4 0 0 1 4,4 v 36 a 4,4 0 0 1 -4,4 H 22 a 4,4 0 0 1 -4,-4 z"
       id="path3"
       style="fill:#88c0d0;fill-opacity:1;stroke-width:0.960768" />
    <path
       d="m 12,20 a 4,4 0 0 1 4,-4 h 32 a 4,4 0 0 1 4,4 v 30 a 4,4 0 0 1 -4,4 H 16 a 4,4 0 0 1 -4,-4 z"
       id="path4"
       style="fill:#b48ead;fill-opacity:1;stroke-width:0.960768" />
    <path
       d="m 30,23 c 0,-0.552285 -0.447715,-1 -1,-1 H 19 c -1.333333,0 -1.333333,2 0,2 h 10 c 0.552285,0 1,-0.447715 1,-1 z"
       id="path5"
       style="fill:url(#e);stroke-width:0.960768"
       sodipodi:nodetypes="ssssss" />
    <path
       d="m 26,27 a 1,1 0 0 0 -1,-1 h -6 a 1,1 0 1 0 0,2 h 6 a 1,1 0 0 0 1,-1 z"
       id="path6"
       style="fill:url(#f);stroke-width:0.960768" />
    <rect
       style="opacity:0.209;fill:url(#linearGradient31);fill-opacity:1;stroke-width:0.960762"
       width="48"
       height="34.899998"
       x="8"
       y="25.1"
       rx="5.5384603"
       ry="6"
       id="rect1" />
    <path
       d="m 8,33 a 2,2 0 0 1 2,-2 h 44 a 2,2 0 0 1 2,2 v 20 a 6,6 0 0 1 -6,6 H 14 A 6,6 0 0 1 8,53 Z"
       id="path7-3-6"
       style="fill:#556177;fill-opacity:1;stroke-width:0.960768" />
  </g>
  <path
     d="m 45.997802,38 c -4.343647,0 -7.87851,3.460397 -7.997796,7.774477 -1.28e-4,0.0053 0.0025,0.01445 0.0076,0.02793 a 8.0011587,7.9999082 0 0 1 0.0038,-0.06588 l 3.939758,1.740478 a 2.4289423,2.4285626 0 0 1 1.619116,-0.619983 2.4289423,2.4285626 0 0 1 0.0737,0.0013 l 1.500706,-2.501108 a 3.1433076,3.1428163 0 0 1 -0.0031,-0.07135 3.1433076,3.1428163 0 0 1 3.143309,-3.142815 3.1433076,3.1428163 0 0 1 3.143308,3.142815 3.1433076,3.1428163 0 0 1 -2.755985,3.118258 l -2.680652,1.694186 a 2.4289423,2.4285626 0 0 1 0.008,0.187498 2.4289423,2.4285626 0 0 1 -2.428908,2.428531 2.4289423,2.4285626 0 0 1 -2.428371,-2.408471 l -2.876423,-1.2707 a 8.0011587,7.9999082 0 0 1 -0.05474,-0.276798 c -8.65e-4,0.05266 0.008,0.120172 0.03059,0.209802 C 39.118758,51.434602 42.259342,54 45.998841,54 c 4.418913,0 8.00116,-3.581679 8.00116,-7.999907 0,-4.418225 -3.582247,-7.99991 -8.00116,-7.99991 z m 2.28604,4.28552 a 2.0002898,1.9999771 0 0 0 -2.000289,1.999978 2.0002898,1.9999771 0 0 0 2.000289,1.999979 2.0002898,1.9999771 0 0 0 2.000288,-1.999979 2.0002898,1.9999771 0 0 0 -2.000288,-1.999978 z m 0,0.571439 a 1.4287642,1.4285409 0 0 1 1.428794,1.428539 1.4287642,1.4285409 0 0 1 -1.428794,1.428577 1.4287642,1.4285409 0 0 1 -1.4288,-1.428577 1.4287642,1.4285409 0 0 1 1.4288,-1.428539 z m -4.714944,4.856992 a 1.5716706,1.571425 0 0 0 -0.70489,0.166839 l 1.108979,0.489965 a 1.0002456,1.0000892 0 1 1 -0.808145,1.829206 l -1.108981,-0.489967 a 1.5716706,1.571425 0 0 0 1.513068,1.146773 1.5716706,1.571425 0 0 0 1.57167,-1.571426 1.5716706,1.571425 0 0 0 -1.57167,-1.571424 z"
     fill="#ffffff"
     opacity="0.75"
     stroke-width="0.321429"
     id="path4-3"
     style="opacity:1;fill:#88c0d0;fill-opacity:1" />
  <path
     d="m 10,38.000001 a 2.0997428,2 0 0 1 2.099739,-2 h 16.797946 a 2.0997428,2 0 1 1 0,3.999997 H 12.099739 A 2.0997428,2 0 0 1 10,38.000001 Z"
     id="path8-5-7"
     style="fill:url(#h-6-2-6);stroke-width:0.999999" />
</svg>
