<?xml version="1.0" encoding="UTF-8" standalone="no"?>
<svg
   width="125"
   height="125"
   viewBox="0 0 125.00001 125.00004"
   fill="none"
   version="1.1"
   id="svg8"
   sodipodi:docname="zen-browser.svg"
   inkscape:version="1.4.2 (unknown)"
   xmlns:inkscape="http://www.inkscape.org/namespaces/inkscape"
   xmlns:sodipodi="http://sodipodi.sourceforge.net/DTD/sodipodi-0.dtd"
   xmlns:xlink="http://www.w3.org/1999/xlink"
   xmlns="http://www.w3.org/2000/svg"
   xmlns:svg="http://www.w3.org/2000/svg">
  <sodipodi:namedview
     id="namedview8"
     pagecolor="#ffffff"
     bordercolor="#999999"
     borderopacity="1"
     inkscape:showpageshadow="2"
     inkscape:pageopacity="0"
     inkscape:pagecheckerboard="0"
     inkscape:deskcolor="#d1d1d1"
     inkscape:zoom="4.209495"
     inkscape:cx="77.562748"
     inkscape:cy="98.705427"
     inkscape:window-width="1920"
     inkscape:window-height="994"
     inkscape:window-x="0"
     inkscape:window-y="0"
     inkscape:window-maximized="1"
     inkscape:current-layer="svg8"
     showgrid="false">
    <inkscape:grid
       id="grid8"
       units="px"
       originx="227.72302"
       originy="-25.434998"
       spacingx="1"
       spacingy="1"
       empcolor="#0099e5"
       empopacity="0.30196078"
       color="#0099e5"
       opacity="0.14901961"
       empspacing="5"
       dotted="false"
       gridanglex="30"
       gridanglez="30"
       visible="false" />
  </sodipodi:namedview>
  <defs
     id="defs8">
    <linearGradient
       id="linearGradient17"
       inkscape:collect="always">
      <stop
         style="stop-color:#ffffff;stop-opacity:0.60000002;"
         offset="0"
         id="stop17" />
      <stop
         style="stop-color:#ffffff;stop-opacity:0;"
         offset="1"
         id="stop18" />
    </linearGradient>
    <linearGradient
       id="linearGradient3"
       inkscape:collect="always">
      <stop
         style="stop-color:#ffccaa;stop-opacity:1"
         offset="0"
         id="stop15" />
      <stop
         style="stop-color:#8b95a7;stop-opacity:1;"
         offset="1"
         id="stop16" />
    </linearGradient>
    <linearGradient
       id="linearGradient1"
       inkscape:collect="always">
      <stop
         style="stop-color:#ff9955;stop-opacity:1"
         offset="0"
         id="stop1" />
      <stop
         style="stop-color:#6f7c91;stop-opacity:0.80313587;"
         offset="1"
         id="stop2" />
    </linearGradient>
    <linearGradient
       id="linearGradient14"
       x1="28.7383"
       y1="25"
       x2="28.7383"
       y2="51"
       gradientUnits="userSpaceOnUse"
       spreadMethod="pad">
      <stop
         stop-color="#FFD075"
         stop-opacity="0.8"
         id="stop13"
         style="stop-color:#00ccff;stop-opacity:0.80000001;"
         offset="0" />
      <stop
         offset="1"
         stop-color="#FFD075"
         stop-opacity="0"
         id="stop14"
         style="stop-color:#00ccff;stop-opacity:0.1;" />
    </linearGradient>
    <linearGradient
       id="linearGradient12"
       x1="28.7383"
       y1="25"
       x2="28.7383"
       y2="51"
       gradientUnits="userSpaceOnUse"
       spreadMethod="pad">
      <stop
         stop-color="#FFD075"
         stop-opacity="0.8"
         id="stop11"
         style="stop-color:#00ccff;stop-opacity:0.73780489;"
         offset="0" />
      <stop
         offset="1"
         stop-color="#FFD075"
         stop-opacity="0"
         id="stop12"
         style="stop-color:#aa87de;stop-opacity:0.27073172;" />
    </linearGradient>
    <linearGradient
       id="linearGradient10"
       x1="28.7383"
       y1="25"
       x2="28.7383"
       y2="51"
       gradientUnits="userSpaceOnUse">
      <stop
         stop-color="#FFD075"
         stop-opacity="0.8"
         id="stop9"
         style="stop-color:#00ccff;stop-opacity:0.73780489;"
         offset="0" />
      <stop
         offset="1"
         stop-color="#FFD075"
         stop-opacity="0"
         id="stop10"
         style="stop-color:#aa87de;stop-opacity:0.22560975;" />
    </linearGradient>
    <linearGradient
       id="paint0_linear_403_1580"
       x1="29"
       y1="13"
       x2="29.237558"
       y2="55.988724"
       gradientUnits="userSpaceOnUse"
       xlink:href="#paint1_linear_403_1580">
      <stop
         stop-color="#FFD075"
         stop-opacity="0.5"
         id="stop3"
         style="stop-color:#00ccff;stop-opacity:0.5;"
         offset="0" />
      <stop
         offset="1"
         stop-color="#FFD075"
         stop-opacity="0"
         id="stop4"
         style="stop-color:#5599ff;stop-opacity:0.10196079;" />
    </linearGradient>
    <linearGradient
       id="paint1_linear_403_1580"
       x1="29.912073"
       y1="18.218882"
       x2="30.129253"
       y2="55.988724"
       gradientUnits="userSpaceOnUse">
      <stop
         stop-color="#FFD075"
         stop-opacity="0.5"
         id="stop5"
         offset="0"
         style="stop-color:#00ccff;stop-opacity:0.5;" />
      <stop
         offset="1"
         stop-color="#FFD075"
         stop-opacity="0"
         id="stop6"
         style="stop-color:#5599ff;stop-opacity:0.10196079;" />
    </linearGradient>
    <linearGradient
       id="paint2_linear_403_1580"
       x1="28.7383"
       y1="25"
       x2="28.7383"
       y2="51"
       gradientUnits="userSpaceOnUse"
       xlink:href="#linearGradient12">
      <stop
         stop-color="#FFD075"
         stop-opacity="0.8"
         id="stop7"
         style="stop-color:#00ccff;stop-opacity:0.73780489;"
         offset="0" />
      <stop
         offset="1"
         stop-color="#FFD075"
         stop-opacity="0"
         id="stop8"
         style="stop-color:#aa87de;stop-opacity:0.55000001;" />
    </linearGradient>
    <linearGradient
       id="paint134_linear_0_1"
       x1="812"
       y1="234.758"
       x2="908.52197"
       y2="331.28"
       gradientUnits="userSpaceOnUse"
       gradientTransform="translate(-791.4147,-219.53464)">
      <stop
         stop-color="#5D9CED"
         id="stop555" />
      <stop
         offset="1"
         stop-color="#1877F2"
         id="stop556" />
    </linearGradient>
    <filter
       id="filter76_f_0_1"
       x="802.27698"
       y="205.435"
       width="112.902"
       height="112.902"
       filterUnits="userSpaceOnUse"
       color-interpolation-filters="sRGB">
      <feFlood
         flood-opacity="0"
         result="BackgroundImageFix"
         id="feFlood254" />
      <feBlend
         mode="normal"
         in="SourceGraphic"
         in2="BackgroundImageFix"
         result="shape"
         id="feBlend255" />
      <feGaussianBlur
         stdDeviation="12"
         result="effect1_foregroundBlur_0_1"
         id="feGaussianBlur255" />
    </filter>
    <filter
       id="filter77_b_0_1"
       x="826"
       y="219"
       width="128.522"
       height="128.522"
       filterUnits="userSpaceOnUse"
       color-interpolation-filters="sRGB">
      <feFlood
         flood-opacity="0"
         result="BackgroundImageFix"
         id="feFlood255" />
      <feGaussianBlur
         in="BackgroundImageFix"
         stdDeviation="7.5"
         id="feGaussianBlur256" />
      <feComposite
         in2="SourceAlpha"
         operator="in"
         result="effect1_backgroundBlur_0_1"
         id="feComposite256" />
      <feBlend
         mode="normal"
         in="SourceGraphic"
         in2="effect1_backgroundBlur_0_1"
         result="shape"
         id="feBlend256" />
    </filter>
    <linearGradient
       id="paint135_linear_0_1"
       x1="926.16895"
       y1="251.15396"
       x2="842"
       y2="328.78799"
       gradientUnits="userSpaceOnUse">
      <stop
         stop-color="#5698ED"
         id="stop557"
         style="stop-color:#939dac;stop-opacity:1" />
      <stop
         offset="1"
         stop-color="#1877F2"
         id="stop558"
         style="stop-color:#6f7c91;stop-opacity:1" />
    </linearGradient>
    <linearGradient
       id="paint136_linear_0_1"
       x1="842"
       y1="235"
       x2="938.52197"
       y2="331.522"
       gradientUnits="userSpaceOnUse"
       gradientTransform="matrix(0.99978077,0,0,0.99978077,0.1843718,0.05129964)">
      <stop
         stop-color="white"
         stop-opacity="0.25"
         id="stop559"
         offset="0"
         style="stop-color:#ffffff;stop-opacity:0.5;" />
      <stop
         offset="1"
         stop-color="white"
         stop-opacity="0"
         id="stop560" />
    </linearGradient>
    <filter
       id="filter78_bd_0_1"
       x="860"
       y="240"
       width="60"
       height="86"
       filterUnits="userSpaceOnUse"
       color-interpolation-filters="sRGB">
      <feFlood
         flood-opacity="0"
         result="BackgroundImageFix"
         id="feFlood256" />
      <feGaussianBlur
         in="BackgroundImageFix"
         stdDeviation="7.5"
         id="feGaussianBlur257" />
      <feComposite
         in2="SourceAlpha"
         operator="in"
         result="effect1_backgroundBlur_0_1"
         id="feComposite257" />
      <feColorMatrix
         in="SourceAlpha"
         type="matrix"
         values="0 0 0 0 0 0 0 0 0 0 0 0 0 0 0 0 0 0 127 0"
         result="hardAlpha"
         id="feColorMatrix257" />
      <feOffset
         dx="5"
         dy="5"
         id="feOffset257" />
      <feGaussianBlur
         stdDeviation="5"
         id="feGaussianBlur258" />
      <feComposite
         in2="hardAlpha"
         operator="out"
         id="feComposite258" />
      <feColorMatrix
         type="matrix"
         values="0 0 0 0 0.088125 0 0 0 0 0.391083 0 0 0 0 0.783333 0 0 0 0.5 0"
         id="feColorMatrix258" />
      <feBlend
         mode="normal"
         in2="effect1_backgroundBlur_0_1"
         result="effect2_dropShadow_0_1"
         id="feBlend258" />
      <feBlend
         mode="normal"
         in="SourceGraphic"
         in2="effect2_dropShadow_0_1"
         result="shape"
         id="feBlend259" />
    </filter>
    <linearGradient
       id="paint137_linear_0_1"
       x1="906.92297"
       y1="237.05099"
       x2="843.18103"
       y2="278.74701"
       gradientUnits="userSpaceOnUse"
       gradientTransform="translate(-123.904,-16.203999)">
      <stop
         stop-color="white"
         id="stop561" />
      <stop
         offset="0.882869"
         stop-color="white"
         stop-opacity="0.2"
         id="stop562" />
    </linearGradient>
    <linearGradient
       id="paint138_linear_0_1"
       x1="881.15399"
       y1="305.974"
       x2="913.94202"
       y2="281.384"
       gradientUnits="userSpaceOnUse">
      <stop
         stop-color="white"
         stop-opacity="0.25"
         id="stop563" />
      <stop
         offset="1"
         stop-color="white"
         stop-opacity="0"
         id="stop564" />
    </linearGradient>
    <linearGradient
       id="linearGradient4349">
      <stop
         style="stop-color:#000000;stop-opacity:1;"
         offset="0"
         id="stop2228" />
      <stop
         style="stop-color:#000000;stop-opacity:0;"
         offset="1"
         id="stop2230" />
    </linearGradient>
    <linearGradient
       id="linearGradient3790">
      <stop
         id="stop3802"
         offset="0"
         style="stop-color:#ddca97;stop-opacity:1;" />
      <stop
         style="stop-color:#a4966f;stop-opacity:1;"
         offset="0.57251769"
         id="stop3808" />
      <stop
         style="stop-color:#363024;stop-opacity:1;"
         offset="1"
         id="stop3794" />
    </linearGradient>
    <linearGradient
       id="linearGradient6064">
      <stop
         id="stop6066"
         offset="0"
         style="stop-color:#837a66;stop-opacity:1" />
      <stop
         id="stop6068"
         offset="1"
         style="stop-color:#5a5446;stop-opacity:0.43137255;" />
    </linearGradient>
    <linearGradient
       id="linearGradient4231-4">
      <stop
         style="stop-color:#363024;stop-opacity:1;"
         offset="0"
         id="stop4233-2" />
      <stop
         style="stop-color:#bdb294;stop-opacity:0;"
         offset="1"
         id="stop4235-7" />
    </linearGradient>
    <linearGradient
       id="linearGradient4231">
      <stop
         id="stop4355"
         offset="0"
         style="stop-color:#2a251b;stop-opacity:1;" />
      <stop
         style="stop-color:#bdb294;stop-opacity:0;"
         offset="1"
         id="stop4235" />
    </linearGradient>
    <linearGradient
       id="linearGradient3937">
      <stop
         style="stop-color:#676150;stop-opacity:1;"
         offset="0"
         id="stop3939" />
      <stop
         style="stop-color:#5a5446;stop-opacity:0.08695652;"
         offset="1"
         id="stop3941" />
    </linearGradient>
    <linearGradient
       id="linearGradient5140-7">
      <stop
         id="stop5142-8"
         offset="0"
         style="stop-color:#fdfdfd;stop-opacity:1;" />
      <stop
         style="stop-color:#ffffff;stop-opacity:1;"
         offset="0.38183475"
         id="stop5144-6" />
      <stop
         style="stop-color:#d9d9d9;stop-opacity:1;"
         offset="0.73938215"
         id="stop5146-5" />
      <stop
         id="stop5148-6"
         offset="0.89802635"
         style="stop-color:#c5c5c5;stop-opacity:1;" />
      <stop
         id="stop5150-2"
         offset="1"
         style="stop-color:#eaeaea;stop-opacity:1;" />
    </linearGradient>
    <linearGradient
       id="linearGradient5240-6-7">
      <stop
         id="stop5248-9-0"
         offset="0"
         style="stop-color:#434e54;stop-opacity:1;" />
      <stop
         style="stop-color:#23292d;stop-opacity:1"
         offset="1"
         id="stop5244-3-19" />
    </linearGradient>
    <linearGradient
       id="linearGradient5258-5-2">
      <stop
         id="stop5260-8-1"
         offset="0"
         style="stop-color:#000000;stop-opacity:1;" />
      <stop
         style="stop-color:#434e54;stop-opacity:1;"
         offset="0.90763313"
         id="stop5262-0-6" />
      <stop
         id="stop5264-4-0"
         offset="1"
         style="stop-color:#23292d;stop-opacity:1" />
    </linearGradient>
    <linearGradient
       id="linearGradient5049-0">
      <stop
         style="stop-color:#ffffff;stop-opacity:1;"
         offset="0"
         id="stop5051-9" />
      <stop
         style="stop-color:#ffffff;stop-opacity:0.33816424;"
         offset="1"
         id="stop5053-1" />
    </linearGradient>
    <linearGradient
       id="linearGradient5757">
      <stop
         style="stop-color:#7b8386;stop-opacity:1;"
         offset="0"
         id="stop5759" />
      <stop
         id="stop5767"
         offset="0.43472689"
         style="stop-color:#24282a;stop-opacity:1" />
      <stop
         id="stop5765"
         offset="0.74703032"
         style="stop-color:#000000;stop-opacity:1;" />
      <stop
         style="stop-color:#000000;stop-opacity:1;"
         offset="0.89803654"
         id="stop5769" />
      <stop
         id="stop5771"
         offset="0.96032226"
         style="stop-color:#3d4143;stop-opacity:1;" />
      <stop
         style="stop-color:#7b8386;stop-opacity:1;"
         offset="1"
         id="stop5761" />
    </linearGradient>
    <linearGradient
       id="linearGradient5942">
      <stop
         style="stop-color:#b9c1c3;stop-opacity:1;"
         offset="0"
         id="stop5944" />
      <stop
         style="stop-color:#2b3132;stop-opacity:1;"
         offset="1"
         id="stop5946" />
    </linearGradient>
    <linearGradient
       id="linearGradient6280">
      <stop
         style="stop-color:#000000;stop-opacity:0;"
         offset="0"
         id="stop6282" />
      <stop
         style="stop-color:#000000;stop-opacity:1;"
         offset="1"
         id="stop6284" />
    </linearGradient>
    <linearGradient
       id="linearGradient6392">
      <stop
         id="stop6394"
         offset="0"
         style="stop-color:#c5d914;stop-opacity:0.98823529;" />
      <stop
         style="stop-color:#d27513;stop-opacity:0.98823529;"
         offset="0.00829687"
         id="stop8982" />
      <stop
         style="stop-color:#cc7112;stop-opacity:0.98823529;"
         offset="0.01659374"
         id="stop8980" />
      <stop
         style="stop-color:#bf6a11;stop-opacity:0.98823529;"
         offset="0.03318748"
         id="stop8978" />
      <stop
         style="stop-color:#a65c0e;stop-opacity:0.99215686;"
         offset="0.06637495"
         id="stop8976" />
      <stop
         style="stop-color:#734009;stop-opacity:1"
         offset="0.1327499"
         id="stop6396" />
      <stop
         id="stop6404"
         offset="0.48951015"
         style="stop-color:#ce8e4c;stop-opacity:1" />
      <stop
         style="stop-color:#eec69d;stop-opacity:1"
         offset="0.63056582"
         id="stop6398" />
      <stop
         style="stop-color:#f9d6b3;stop-opacity:1"
         offset="0.7128883"
         id="stop6400" />
      <stop
         id="stop6402"
         offset="1"
         style="stop-color:#d97914;stop-opacity:0.99607843" />
    </linearGradient>
    <linearGradient
       id="linearGradient6412">
      <stop
         style="stop-color:#575757;stop-opacity:1"
         offset="0"
         id="stop6414" />
      <stop
         id="stop6424"
         offset="0.07647054"
         style="stop-color:#b8b8b8;stop-opacity:1" />
      <stop
         id="stop6422"
         offset="0.24232632"
         style="stop-color:#a9a9a9;stop-opacity:1" />
      <stop
         id="stop6420"
         offset="0.69411778"
         style="stop-color:#fdfdfd;stop-opacity:1" />
      <stop
         style="stop-color:#f4f4f4;stop-opacity:0.99215686;"
         offset="0.79705876"
         id="stop6426" />
      <stop
         style="stop-color:#c1c1c1;stop-opacity:0.98823529"
         offset="1"
         id="stop6416" />
    </linearGradient>
    <linearGradient
       id="linearGradient6492">
      <stop
         style="stop-color:#050505;stop-opacity:1"
         offset="0"
         id="stop6494" />
      <stop
         id="stop6500"
         offset="0.46724156"
         style="stop-color:#3f3f3f;stop-opacity:1;" />
      <stop
         style="stop-color:#7b7b7b;stop-opacity:1;"
         offset="0.73362076"
         id="stop6502" />
      <stop
         id="stop6618"
         offset="0.86681038"
         style="stop-color:#3d3d3d;stop-opacity:1;" />
      <stop
         style="stop-color:#000000;stop-opacity:1;"
         offset="1"
         id="stop6496" />
    </linearGradient>
    <linearGradient
       inkscape:collect="always"
       xlink:href="#linearGradient1"
       id="linearGradient2"
       x1="19.504208"
       y1="11.646815"
       x2="105.76402"
       y2="96.060898"
       gradientUnits="userSpaceOnUse"
       gradientTransform="matrix(1,0,0,0.99903397,-4.271111,0.11313076)" />
    <linearGradient
       inkscape:collect="always"
       xlink:href="#linearGradient3"
       id="linearGradient16"
       x1="847.95929"
       y1="325.79001"
       x2="932.22827"
       y2="240.41043"
       gradientUnits="userSpaceOnUse" />
    <linearGradient
       inkscape:collect="always"
       xlink:href="#linearGradient17"
       id="linearGradient18"
       x1="850.45605"
       y1="238.64581"
       x2="932.57428"
       y2="325.7782"
       gradientUnits="userSpaceOnUse" />
    <linearGradient
       id="d"
       x1="-37.637001"
       x2="-36.792999"
       y1="280.01001"
       y2="273.35999"
       gradientTransform="matrix(1.8392002,0,0,1.832799,137.71695,-377.13708)"
       gradientUnits="userSpaceOnUse">
      <stop
         offset="0"
         stop-color="#fefefe"
         id="stop5-3" />
      <stop
         offset="1"
         stop-color="#8c8c8c"
         id="stop6-6" />
    </linearGradient>
    <radialGradient
       id="e"
       cx="-42.763"
       cy="277.01999"
       r="7.1999998"
       gradientTransform="matrix(1.8392002,0,0,0.86063971,137.71695,-107.82709)"
       gradientUnits="userSpaceOnUse">
      <stop
         offset="0"
         stop-color="#fff"
         id="stop15-7" />
      <stop
         offset="1"
         stop-color="#ccc"
         id="stop16-5" />
    </radialGradient>
    <radialGradient
       xlink:href="#linearGradient4349"
       id="f"
       cx="62.625"
       cy="4.625"
       r="10.625"
       gradientTransform="matrix(1.7390997,0,0,0.57508982,-50.435097,128.59283)"
       gradientUnits="userSpaceOnUse" />
    <radialGradient
       id="g"
       cx="118.48"
       cy="58.118999"
       r="13.983"
       gradientTransform="matrix(-0.40417003,0.40573989,-0.25544997,-0.25843987,138.54694,85.956834)"
       gradientUnits="userSpaceOnUse">
      <stop
         offset="0"
         stop-color="#fefefe"
         id="stop17-6" />
      <stop
         offset="1"
         stop-color="#b4b4b3"
         id="stop18-2" />
    </radialGradient>
    <radialGradient
       id="h"
       cx="94.238998"
       cy="62.312"
       r="13.983"
       gradientTransform="matrix(-0.45004001,0.02307001,-0.01995,-0.39522989,125.74691,133.45082)"
       gradientUnits="userSpaceOnUse">
      <stop
         offset="0"
         stop-color="#fff"
         id="stop19" />
      <stop
         offset="1"
         stop-color="#fff"
         stop-opacity="0"
         id="stop20" />
    </radialGradient>
    <radialGradient
       xlink:href="#linearGradient4349"
       id="i"
       cx="106.33"
       cy="65.468002"
       r="13.983"
       gradientTransform="matrix(-0.34633997,3.7999984e-4,0,-0.12995994,113.56391,121.75282)"
       gradientUnits="userSpaceOnUse" />
    <radialGradient
       xlink:href="#linearGradient4349"
       id="j"
       cx="62.625"
       cy="4.625"
       r="10.625"
       gradientTransform="matrix(2.3888006,0,0,0.78993974,-91.123094,127.59882)"
       gradientUnits="userSpaceOnUse" />
    <radialGradient
       id="k"
       cx="32.841602"
       cy="-15.763996"
       r="32"
       gradientTransform="matrix(0,0.82020974,-0.85578007,0,74.894906,122.90583)"
       gradientUnits="userSpaceOnUse"
       fx="32.841602"
       fy="-15.763996">
      <stop
         offset="0"
         stop-color="#eeeeec"
         id="stop21" />
      <stop
         offset=".5"
         stop-color="#cacac9"
         id="stop22" />
      <stop
         offset="1"
         stop-color="#6b6b6b"
         id="stop23" />
    </radialGradient>
    <linearGradient
       id="m"
       x1="5.684"
       x2="35.033001"
       y1="16.365999"
       y2="16.365999"
       gradientTransform="matrix(0.55457999,0,0,0.40423987,55.617906,103.74282)"
       gradientUnits="userSpaceOnUse"
       spreadMethod="reflect">
      <stop
         offset="0"
         stop-color="#d1d1d1"
         id="stop9-9" />
      <stop
         offset="1"
         stop-color="#959594"
         id="stop10-3" />
    </linearGradient>
    <radialGradient
       id="n"
       cx="44.001499"
       cy="113.74691"
       r="26.406"
       gradientTransform="matrix(0.68425003,0,0,0.27935994,53.033904,105.74783)"
       gradientUnits="userSpaceOnUse"
       fx="44.001499"
       fy="113.74691">
      <stop
         offset="0"
         stop-color="#8b6a35"
         id="stop24" />
      <stop
         offset=".371"
         stop-color="#885f22"
         id="stop25" />
      <stop
         offset=".686"
         stop-color="#754d0d"
         id="stop26" />
      <stop
         offset="1"
         stop-color="#483816"
         id="stop27" />
    </radialGradient>
    <linearGradient
       id="o"
       x1="87.050003"
       x2="87.050003"
       y1="53.75"
       y2="41.73"
       gradientTransform="matrix(0.57744002,0,0,0.58193977,9.5507858,102.42879)"
       gradientUnits="userSpaceOnUse">
      <stop
         offset="0"
         stop-color="#fff"
         id="stop11-6" />
      <stop
         offset="1"
         stop-color="#fff"
         stop-opacity="0"
         id="stop12-0" />
    </linearGradient>
    <linearGradient
       xlink:href="#linearGradient4349"
       id="q"
       x1="56.576"
       x2="56.576"
       y1="13.28"
       y2="18.039"
       gradientTransform="matrix(2.1562998,0,0,2.4868994,-69.385098,65.899842)"
       gradientUnits="userSpaceOnUse" />
    <linearGradient
       id="linearGradient29">
      <stop
         offset="0"
         stop-color="#ad9177"
         stop-opacity=".373"
         id="stop13-6"
         style="stop-color:#efeae5;stop-opacity:1;" />
      <stop
         offset=".251"
         stop-color="#947b62"
         id="stop14-2" />
      <stop
         offset=".721"
         stop-color="#947b62"
         id="stop28" />
      <stop
         offset="1"
         stop-color="#947b62"
         stop-opacity=".009"
         id="stop29" />
    </linearGradient>
    <linearGradient
       xlink:href="#linearGradient35"
       id="r"
       x1="56.576"
       x2="56.576"
       y1="13.718"
       y2="18.039"
       gradientTransform="matrix(2.1562998,0,0,2.4868994,-63.382092,65.789843)"
       gradientUnits="userSpaceOnUse" />
    <linearGradient
       id="linearGradient35">
      <stop
         offset="0"
         stop-color="#ad9177"
         stop-opacity=".373"
         id="stop32"
         style="stop-color:#e2d8ce;stop-opacity:1;" />
      <stop
         offset=".251"
         stop-color="#947b62"
         id="stop33" />
      <stop
         offset=".721"
         stop-color="#947b62"
         id="stop34" />
      <stop
         offset="1"
         stop-color="#947b62"
         stop-opacity=".009"
         id="stop35" />
    </linearGradient>
    <linearGradient
       xlink:href="#a"
       id="s"
       x1="56.576"
       x2="56.576"
       y1="13.28"
       y2="18.039"
       gradientTransform="matrix(2.1562998,0,0,2.4868994,-57.473095,65.789843)"
       gradientUnits="userSpaceOnUse" />
    <linearGradient
       id="a">
      <stop
         offset="0"
         stop-color="#ad9177"
         stop-opacity=".373"
         id="stop30"
         style="stop-color:#e4dad1;stop-opacity:1;" />
      <stop
         offset=".251"
         stop-color="#947b62"
         id="stop31" />
      <stop
         offset=".721"
         stop-color="#947b62"
         id="stop36" />
      <stop
         offset="1"
         stop-color="#947b62"
         stop-opacity=".009"
         id="stop37" />
    </linearGradient>
  </defs>
  <rect
     x="4.872365"
     y="7.0466204"
     width="96.521599"
     height="96.428352"
     rx="25"
     transform="matrix(0.99999881,0.00154121,-0.00154419,0.99999881,0,0)"
     id="rect106"
     style="fill:url(#linearGradient2);fill-opacity:1;stroke-width:0.999517" />
  <g
     filter="url(#filter76_f_0_1)"
     id="g107"
     transform="translate(-817.97698,-213.636)" />
  <g
     filter="url(#filter77_b_0_1)"
     id="g109"
     transform="translate(-817.97698,-213.636)">
    <rect
       x="842"
       y="235"
       width="96.521599"
       height="96.521599"
       rx="20"
       fill-opacity="0.4"
       id="rect108"
       style="fill:url(#linearGradient16);opacity:1" />
    <rect
       x="841.49988"
       y="234.49989"
       width="97.500221"
       height="97.500221"
       rx="20.495506"
       id="rect109"
       style="stroke:url(#linearGradient18)" />
  </g>
  <g
     id="g1"
     transform="matrix(1.4787879,0,0,1.4761905,-52.29091,-195.83334)"
     style="stroke-width:0.676824">
    <ellipse
       style="opacity:0.2;stroke-width:0.676802"
       cx="77.625"
       cy="175.36842"
       id="circle1"
       rx="20.624996"
       ry="20.631575" />
    <ellipse
       style="fill:#424c57;fill-opacity:1;stroke-width:0.676802"
       cx="77.625"
       cy="174.63158"
       id="circle2"
       rx="20.624996"
       ry="20.631575" />
    <path
       style="opacity:0.1;fill:#ffffff;stroke-width:0.676802"
       d="M 77.625,154 A 20.625,20.631577 0 0 0 57,174.63158 20.625,20.631577 0 0 0 57.024457,174.98705 20.625,20.631577 0 0 1 77.625,154.73684 20.625,20.631577 0 0 1 98.237051,174.81003 20.625,20.631577 0 0 0 98.25,174.63158 20.625,20.631577 0 0 0 77.625,154 Z"
       id="path5" />
    <g
       id="g2"
       transform="matrix(0.81944444,0,0,0.81081081,53.041663,99.589189)"
       style="stroke-width:0.830334">
      <path
         style="opacity:0.1;stroke-width:0.830334"
         d="M 30,87.5 A 6.5,6.5 0 0 0 23.5,94 6.5,6.5 0 0 0 30,100.5 6.5,6.5 0 0 0 36.5,94 6.5,6.5 0 0 0 30,87.5 Z m 0,1.5 a 5,5 0 0 1 5,5 5,5 0 0 1 -5,5 5,5 0 0 1 -5,-5 5,5 0 0 1 5,-5 z m 0,-6.5 A 11.5,11.5 0 0 0 18.5,94 11.5,11.5 0 0 0 30,105.5 11.5,11.5 0 0 0 41.5,94 11.5,11.5 0 0 0 30,82.5 Z m 0.023,2.542 a 8.9817,8.9817 0 0 1 8.982,8.981 8.9817,8.9817 0 0 1 -8.982,8.982 8.9817,8.9817 0 0 1 -8.981,-8.982 8.9817,8.9817 0 0 1 8.981,-8.981 z M 30,76 A 18,18 0 0 0 12,94 18,18 0 0 0 30,112 18,18 0 0 0 48,94 18,18 0 0 0 30,76 Z m 0,4 A 14,14 0 0 1 44,94 14,14 0 0 1 30,108 14,14 0 0 1 16,94 14,14 0 0 1 30,80 Z"
         id="path3-3" />
      <path
         style="fill:#f7866e;fill-opacity:1;stroke-width:0.830334"
         d="M 30,86.5 A 6.5,6.5 0 0 0 23.5,93 6.5,6.5 0 0 0 30,99.5 6.5,6.5 0 0 0 36.5,93 6.5,6.5 0 0 0 30,86.5 Z m 0,1.5 a 5,5 0 0 1 5,5 5,5 0 0 1 -5,5 5,5 0 0 1 -5,-5 5,5 0 0 1 5,-5 z m 0,-6.5 A 11.5,11.5 0 0 0 18.5,93 11.5,11.5 0 0 0 30,104.5 11.5,11.5 0 0 0 41.5,93 11.5,11.5 0 0 0 30,81.5 Z m 0.023,2.542 a 8.9817,8.9817 0 0 1 8.982,8.981 8.9817,8.9817 0 0 1 -8.982,8.982 8.9817,8.9817 0 0 1 -8.981,-8.982 8.9817,8.9817 0 0 1 8.981,-8.981 z M 30,75 A 18,18 0 0 0 12,93 18,18 0 0 0 30,111 18,18 0 0 0 48,93 18,18 0 0 0 30,75 Z m 0,4 A 14,14 0 0 1 44,93 14,14 0 0 1 30,107 14,14 0 0 1 16,93 14,14 0 0 1 30,79 Z"
         id="path4-6" />
      <path
         style="opacity:0.2;fill:#ffffff;stroke-width:0.830334"
         d="M 30,75 A 18,18 0 0 0 12,93 18,18 0 0 0 12.0352,93.5 18,18 0 0 1 30,76 18,18 0 0 1 47.982,93.254 18,18 0 0 0 48,93 18,18 0 0 0 30,75 Z m 0,6.5 A 11.5,11.5 0 0 0 18.5,93 11.5,11.5 0 0 0 18.543,93.5 11.5,11.5 0 0 1 30,82.5 11.5,11.5 0 0 1 41.477,93.275 11.5,11.5 0 0 0 41.5,93 11.5,11.5 0 0 0 30,81.5 Z m 0,5 A 6.5,6.5 0 0 0 23.5,93 6.5,6.5 0 0 0 23.557,93.5 6.5,6.5 0 0 1 30,87.5 6.5,6.5 0 0 1 36.463,93.334 6.5,6.5 0 0 0 36.5,93 6.5,6.5 0 0 0 30,86.5 Z m 13.98,6.758 A 14,14 0 0 1 30,107 14,14 0 0 1 16.039,93.5 14,14 0 0 0 16,94 14,14 0 0 0 30,108 14,14 0 0 0 44,94 14,14 0 0 0 43.98,93.258 Z m -9.027,0.099 A 5,5 0 0 1 30,98 5,5 0 0 1 25.066,93.5 5,5 0 0 0 25,94 a 5,5 0 0 0 5,5 5,5 0 0 0 5,-5 5,5 0 0 0 -0.047,-0.643 z m -13.861,0.166 a 8.9817,8.9817 0 0 0 -0.049,0.5 8.9817,8.9817 0 0 0 8.98,8.983 8.9817,8.9817 0 0 0 8.983,-8.983 8.9817,8.9817 0 0 0 -0.029,-0.302 8.9817,8.9817 0 0 1 -8.954,8.285 8.9817,8.9817 0 0 1 -8.931,-8.483 z"
         id="path5-7" />
    </g>
  </g>
</svg>
