<?xml version="1.0" encoding="UTF-8" standalone="no"?>
<svg
   width="64"
   height="64"
   fill="none"
   version="1.1"
   id="svg23"
   sodipodi:docname="file-manager-red.svg"
   inkscape:version="1.4.2 (unknown)"
   xmlns:inkscape="http://www.inkscape.org/namespaces/inkscape"
   xmlns:sodipodi="http://sodipodi.sourceforge.net/DTD/sodipodi-0.dtd"
   xmlns:xlink="http://www.w3.org/1999/xlink"
   xmlns="http://www.w3.org/2000/svg"
   xmlns:svg="http://www.w3.org/2000/svg">
  <sodipodi:namedview
     id="namedview23"
     pagecolor="#ffffff"
     bordercolor="#000000"
     borderopacity="0.25"
     inkscape:showpageshadow="2"
     inkscape:pageopacity="0.0"
     inkscape:pagecheckerboard="0"
     inkscape:deskcolor="#d1d1d1"
     inkscape:zoom="8"
     inkscape:cx="41.4375"
     inkscape:cy="36.4375"
     inkscape:current-layer="svg23"
     showgrid="true">
    <inkscape:grid
       id="grid23"
       units="px"
       originx="0"
       originy="0"
       spacingx="1"
       spacingy="1"
       empcolor="#0099e5"
       empopacity="0.30196078"
       color="#0099e5"
       opacity="0.14901961"
       empspacing="5"
       enabled="true"
       visible="true" />
  </sodipodi:namedview>
  <defs
     id="defs23">
    <linearGradient
       id="linearGradient30"
       inkscape:collect="always">
      <stop
         style="stop-color:#000000;stop-opacity:1;"
         offset="0"
         id="stop30" />
      <stop
         style="stop-color:#000000;stop-opacity:0.19607843;"
         offset="0.80361378"
         id="stop32" />
      <stop
         style="stop-color:#000000;stop-opacity:0;"
         offset="0.83011484"
         id="stop33" />
      <stop
         style="stop-color:#000000;stop-opacity:0;"
         offset="1"
         id="stop31" />
    </linearGradient>
    <linearGradient
       id="a"
       x1="56"
       x2="48.474"
       y1="34"
       y2="8.195"
       gradientUnits="userSpaceOnUse">
      <stop
         stop-color="#2E2E41"
         id="stop8"
         style="stop-color:#6f7c91;stop-opacity:1" />
      <stop
         offset="1"
         stop-color="#566C80"
         id="stop9"
         style="stop-color:#4f6274;stop-opacity:1;" />
    </linearGradient>
    <linearGradient
       id="b"
       x1="50"
       x2="1.22"
       y1="54"
       y2="14.976"
       gradientUnits="userSpaceOnUse">
      <stop
         stop-color="#5200FF"
         id="stop10" />
      <stop
         offset=".906"
         stop-color="#0085FF"
         id="stop11" />
    </linearGradient>
    <linearGradient
       id="c"
       x1="54"
       x2="10.871"
       y1="54"
       y2="18.713"
       gradientUnits="userSpaceOnUse">
      <stop
         offset=".378"
         stop-color="#FF7E07"
         id="stop12" />
      <stop
         offset="1"
         stop-color="#FFE607"
         id="stop13" />
    </linearGradient>
    <linearGradient
       id="d"
       x1="52"
       x2="14.05"
       y1="54"
       y2="14.053"
       gradientUnits="userSpaceOnUse">
      <stop
         offset=".296"
         stop-color="#71706E"
         id="stop14" />
      <stop
         offset="1"
         stop-color="#B9AA99"
         id="stop15" />
    </linearGradient>
    <linearGradient
       id="e"
       x1="21.75"
       x2="21.75"
       y1="22"
       y2="24"
       gradientUnits="userSpaceOnUse"
       gradientTransform="matrix(0.92307669,0,0,1,2.4615383,0)">
      <stop
         stop-color="#fff"
         id="stop16" />
      <stop
         offset=".705"
         stop-color="#E6E6E6"
         id="stop17" />
    </linearGradient>
    <linearGradient
       id="f"
       x1="20.5"
       x2="20.5"
       y1="26"
       y2="28"
       gradientUnits="userSpaceOnUse"
       gradientTransform="matrix(0.92307669,0,0,1,2.4615383,0)">
      <stop
         stop-color="#fff"
         id="stop18" />
      <stop
         offset=".705"
         stop-color="#E6E6E6"
         id="stop19" />
    </linearGradient>
    <linearGradient
       id="g"
       x1="56"
       x2="31.627"
       y1="60"
       y2="18.218"
       gradientUnits="userSpaceOnUse">
      <stop
         offset=".127"
         stop-color="#2E2E41"
         id="stop20"
         style="stop-color:#535d6c;stop-opacity:1" />
      <stop
         offset="0.87699997"
         stop-color="#566C80"
         id="stop21"
         style="stop-color:#29343d;stop-opacity:1;" />
    </linearGradient>
    <linearGradient
       id="h"
       x1="40.696"
       x2="40.696"
       y1="46"
       y2="42"
       gradientUnits="userSpaceOnUse">
      <stop
         offset=".341"
         stop-color="#2E2E41"
         id="stop22" />
      <stop
         offset="1"
         stop-color="#566C80"
         id="stop23" />
    </linearGradient>
    <linearGradient
       inkscape:collect="always"
       xlink:href="#linearGradient30"
       id="linearGradient31"
       x1="30"
       y1="60"
       x2="30"
       y2="25"
       gradientUnits="userSpaceOnUse"
       gradientTransform="matrix(0.92307669,0,0,1,2.4615383,0)" />
    <linearGradient
       id="h-6"
       x1="21.998775"
       x2="21.998775"
       y1="39.824768"
       y2="35.824772"
       gradientUnits="userSpaceOnUse">
      <stop
         offset="0.34099999"
         stop-color="#2E2E41"
         id="stop22-7" />
      <stop
         offset="1"
         stop-color="#566C80"
         id="stop23-5" />
    </linearGradient>
    <linearGradient
       id="h-6-2"
       x1="22.000006"
       x2="22.000006"
       y1="41"
       y2="37"
       gradientUnits="userSpaceOnUse"
       gradientTransform="matrix(0.92307674,0,0,1,2.4615384,0)">
      <stop
         offset="0.5"
         stop-color="#2E2E41"
         id="stop22-7-9" />
      <stop
         offset="1"
         stop-color="#566C80"
         id="stop23-5-1" />
    </linearGradient>
  </defs>
  <g
     transform="matrix(1.1666667,0,0,1.1666667,36.539317,-1172.4227)"
     id="g2"
     style="fill:#f9f9f9;fill-opacity:0.603922;stroke-width:1.57143"
     inkscape:transform-center-x="3.541502"
     inkscape:transform-center-y="-10.793149" />
  <g
     id="g1"
     transform="matrix(1.0833333,0,0,1,-2.6666664,0)"
     style="stroke-width:0.960768">
    <path
       fill="url(#a)"
       d="m 8,26 a 6,6 0 0 1 6,-6 h 36 a 6,6 0 0 1 6,6 v 8 H 8 Z"
       id="path1"
       style="fill:#8894aa;fill-opacity:1;stroke-width:0.960768" />
    <path
       fill="url(#b)"
       d="m 10,8 a 4,4 0 0 1 4,-4 h 32 a 4,4 0 0 1 4,4 v 42 a 4,4 0 0 1 -4,4 H 14 a 4,4 0 0 1 -4,-4 z"
       id="path2"
       style="fill:#ff8080;fill-opacity:1;stroke-width:0.960768" />
    <path
       fill="url(#c)"
       d="m 18,14 a 4,4 0 0 1 4,-4 h 28 a 4,4 0 0 1 4,4 v 36 a 4,4 0 0 1 -4,4 H 22 a 4,4 0 0 1 -4,-4 z"
       id="path3"
       style="fill:#88c0d0;fill-opacity:1;stroke-width:0.960768" />
    <path
       fill="url(#d)"
       d="m 12,20 a 4,4 0 0 1 4,-4 h 32 a 4,4 0 0 1 4,4 v 30 a 4,4 0 0 1 -4,4 H 16 a 4,4 0 0 1 -4,-4 z"
       id="path4"
       style="fill:#b48ead;fill-opacity:1;stroke-width:0.960768" />
    <path
       fill="url(#e)"
       d="M 30,23 A 1,1 0 0 0 29,22 H 19 a 1,1 0 1 0 0,2 h 10 a 1,1 0 0 0 1,-1 z"
       id="path5"
       style="fill:url(#e);stroke-width:0.960768" />
    <path
       fill="url(#f)"
       d="m 26,27 a 1,1 0 0 0 -1,-1 h -6 a 1,1 0 1 0 0,2 h 6 a 1,1 0 0 0 1,-1 z"
       id="path6"
       style="fill:url(#f);stroke-width:0.960768" />
    <rect
       style="opacity:0.209;fill:url(#linearGradient31);fill-opacity:1;stroke-width:0.960762"
       width="48"
       height="34.899998"
       x="8"
       y="25.1"
       rx="5.5384603"
       ry="6"
       id="rect1" />
    <path
       fill="url(#g)"
       d="m 8,33 a 2,2 0 0 1 2,-2 h 44 a 2,2 0 0 1 2,2 v 20 a 6,6 0 0 1 -6,6 H 14 A 6,6 0 0 1 8,53 Z"
       id="path7-3-6"
       style="fill:#556177;fill-opacity:1;stroke-width:0.960768" />
    <path
       fill="url(#h)"
       d="m 11.692308,38.000001 a 1.9382242,2 0 0 1 1.938221,-2 h 15.505797 a 1.9382242,2 0 1 1 0,3.999997 H 13.630529 a 1.9382242,2 0 0 1 -1.938221,-1.999997 z"
       id="path8-5-7"
       style="fill:url(#h-6-2);stroke-width:0.960768" />
  </g>
  <path
     d="m 53.822831,41.013458 c 0.04218,-0.993166 -0.889598,-2.017812 -1.268658,-2.387568 -2.09502,-6.029061 -9.617149,-3.92178 -11.085905,-3.442861 -3.82694,-2.765765 -6.774697,0.181084 -6.801077,0.210215 -0.141938,0.141788 -0.205096,0.365765 -0.163128,0.579483 0.04212,0.207924 0.184429,0.376864 0.36855,0.437065 1.179225,0.383298 2.0688,1.682857 2.442399,2.310817 -2.747723,3.657499 -2.847721,8.869544 -2.821439,10.21045 -3.426908,3.226013 -2.342468,6.54833 -2.289943,6.692695 0.07364,0.208001 0.242229,0.360317 0.442298,0.376245 0.01448,0 0.03182,0 0.04705,0 0.179103,0 0.352809,-0.108384 0.447544,-0.285924 0.626428,-1.148706 1.410839,-1.841887 2.326664,-2.064623 1.637009,-0.393482 3.226771,0.809974 3.242546,0.820729 0.120947,0.09524 0.273699,0.13088 0.421034,0.07948 0.142293,-0.03211 0.268402,-0.149656 0.336853,-0.300589 0.826384,-1.729437 -0.452743,-3.93296 -0.926561,-4.655825 0.605246,-2.92318 2.089797,-4.617134 3.253022,-5.532629 l -0.236716,0.449428 c -0.07365,0.149605 -0.09469,0.321077 -0.04766,0.485265 0.04206,0.167901 0.147496,0.299068 0.284397,0.37051 0.515739,0.255283 1.236927,0.281057 2.153005,0.0587 0.763396,-0.188723 1.500273,-0.63522 2.131982,-1.299422 0.826353,-0.86207 1.74768,-0.927921 1.74768,-0.927921 h 5.232525 c 0.121083,0 0.231609,-0.03982 0.326349,-0.124812 0.447536,-0.400959 0.57372,-0.83719 0.605223,-1.136545 0.0424,-0.397053 -0.06791,-0.731796 -0.167851,-0.946567 z m -3.700533,-0.646886 h -0.289587 c -0.289577,0 -0.526525,-0.267362 -0.526525,-0.598904 0,-0.330969 0.236885,-0.598119 0.526525,-0.598119 h 0.289587 c 0.294775,0 0.526476,0.266524 0.526476,0.598119 0,0.330161 -0.231574,0.598904 -0.526476,0.598904 z"
     id="path49-5-3-5-5-2-6-3-3-3-2"
     style="fill:#ff8080;fill-opacity:1;stroke-width:0.0651549"
     class=" " />
</svg>
